<svg width="20" height="20" viewBox="0 0 20 20" fill="none" xmlns="http://www.w3.org/2000/svg">
<path fill-rule="evenodd" clip-rule="evenodd" d="M9.37501 1.41765C9.56503 1.30794 9.78059 1.25018 10 1.25018C10.2194 1.25018 10.435 1.30794 10.625 1.41765L12.2917 2.38015C12.5613 2.53613 12.763 2.78715 12.8572 3.08405C12.9514 3.38094 12.9314 3.70232 12.801 3.98522C12.6707 4.26813 12.4394 4.49217 12.1525 4.61347C11.8656 4.73477 11.5438 4.74458 11.25 4.64098L11.25 5.00015C11.25 5.33167 11.1183 5.64961 10.8839 5.88403C10.6495 6.11845 10.3315 6.25015 10 6.25015C9.66849 6.25015 9.35054 6.11845 9.11612 5.88403C8.8817 5.64961 8.75001 5.33167 8.75001 5.00015L8.75001 4.64182C8.45591 4.74659 8.13324 4.73752 7.8455 4.61638C7.55775 4.49524 7.32576 4.2708 7.19515 3.98723C7.06454 3.70366 7.04478 3.38147 7.13975 3.08406C7.23473 2.78665 7.43756 2.53555 7.70834 2.38015L9.37501 1.41765ZM5.98334 6.23932C6.22065 6.03697 6.37375 5.75321 6.41257 5.44377C6.4514 5.13433 6.37315 4.82155 6.19318 4.56684C6.01322 4.31214 5.74454 4.1339 5.4399 4.06714C5.13526 4.00037 4.81667 4.04989 4.54667 4.20598L2.88001 5.16765C2.68999 5.27736 2.53219 5.43515 2.42248 5.62517C2.31277 5.81519 2.25501 6.03074 2.25501 6.25015L2.25501 8.17515C2.25516 8.48687 2.37177 8.78728 2.58196 9.01746C2.79216 9.24764 3.08077 9.39098 3.3912 9.41936C3.70162 9.44774 4.01144 9.35912 4.25989 9.17087C4.50835 8.98262 4.6775 8.70834 4.73417 8.40182C5.01973 8.54972 5.3513 8.58187 5.65995 8.4916C5.96861 8.40132 6.23059 8.19557 6.39145 7.9171C6.5523 7.63864 6.59965 7.30889 6.52364 6.99642C6.44764 6.68395 6.25412 6.41279 5.98334 6.23932ZM13.7458 4.66265C13.8279 4.52039 13.9372 4.39569 14.0675 4.2957C14.1978 4.1957 14.3465 4.12236 14.5052 4.07988C14.6638 4.03739 14.8293 4.02658 14.9922 4.04808C15.155 4.06957 15.312 4.12295 15.4542 4.20515L17.1208 5.16765C17.311 5.27743 17.4689 5.43535 17.5786 5.62553C17.6883 5.81571 17.746 6.03143 17.7458 6.25098L17.7458 8.17432C17.7471 8.4869 17.6311 8.7886 17.4209 9.01991C17.2106 9.25123 16.9213 9.39538 16.61 9.42393C16.2988 9.45249 15.9881 9.36338 15.7392 9.17417C15.4904 8.98497 15.3215 8.70941 15.2658 8.40182C14.9804 8.54829 14.6496 8.5794 14.3418 8.48871C14.0341 8.39802 13.773 8.19248 13.6126 7.91462C13.4522 7.63676 13.4048 7.30787 13.4801 6.99602C13.5555 6.68418 13.7479 6.41325 14.0175 6.23932C13.795 6.04974 13.646 5.78819 13.5964 5.50014C13.5468 5.21209 13.5996 4.91575 13.7458 4.66265ZM7.11334 8.33348C7.19535 8.19115 7.30461 8.06638 7.43487 7.9663C7.56514 7.86622 7.71385 7.7928 7.87251 7.75023C8.03117 7.70767 8.19666 7.69679 8.35952 7.71822C8.52239 7.73966 8.67943 7.79298 8.82167 7.87515L10 8.55682L11.1792 7.87598C11.3214 7.79261 11.4787 7.73819 11.642 7.71586C11.8053 7.69353 11.9715 7.70372 12.1309 7.74586C12.2902 7.788 12.4397 7.86124 12.5706 7.96138C12.7016 8.06151 12.8115 8.18656 12.8939 8.32932C12.9763 8.47209 13.0297 8.62975 13.0509 8.79322C13.0722 8.9567 13.0609 9.12276 13.0177 9.28185C12.9745 9.44094 12.9003 9.58992 12.7993 9.7202C12.6983 9.85049 12.5725 9.95951 12.4292 10.041L11.25 10.7218L11.25 12.0835C11.25 12.415 11.1183 12.7329 10.8839 12.9674C10.6495 13.2018 10.3315 13.3335 10 13.3335C9.66849 13.3335 9.35054 13.2018 9.11612 12.9674C8.8817 12.7329 8.75001 12.415 8.75001 12.0835L8.75001 10.7218L7.57084 10.041C7.42858 9.9589 7.30388 9.84959 7.20389 9.7193C7.10389 9.589 7.03055 9.44028 6.98806 9.28163C6.94558 9.12297 6.93477 8.9575 6.95627 8.79467C6.97776 8.63184 7.03114 8.47484 7.11334 8.33265V8.33348ZM4.73417 11.5968C4.67746 11.2901 4.50812 11.0156 4.2594 10.8274C4.01068 10.6391 3.70056 10.5507 3.38995 10.5794C3.07934 10.6081 2.79069 10.7519 2.5807 10.9826C2.3707 11.2132 2.25453 11.5141 2.25501 11.826L2.25501 13.7502C2.25501 13.9696 2.31277 14.1851 2.42248 14.3751C2.53219 14.5652 2.68999 14.7229 2.88001 14.8326L4.54667 15.7952C4.81669 15.9521 5.13569 16.0023 5.44087 15.9359C5.74605 15.8694 6.0153 15.6911 6.1956 15.4361C6.3759 15.1811 6.45419 14.8678 6.41506 14.5579C6.37593 14.248 6.22221 13.964 5.98417 13.7618L6.29501 13.5826C6.43831 13.5012 6.56409 13.3922 6.66509 13.2619C6.76609 13.1316 6.84033 12.9826 6.88352 12.8235C6.92671 12.6644 6.93801 12.4984 6.91676 12.3349C6.89551 12.1714 6.84214 12.0138 6.75971 11.871C6.67728 11.7282 6.56743 11.6032 6.43648 11.503C6.30553 11.4029 6.15606 11.3297 5.99669 11.2875C5.83731 11.2454 5.67118 11.2352 5.50785 11.2575C5.34452 11.2799 5.18722 11.3343 5.04501 11.4177L4.73417 11.5968ZM16.495 10.576C16.8265 10.576 17.1445 10.7077 17.3789 10.9421C17.6133 11.1765 17.745 11.4945 17.745 11.826L17.745 13.751C17.7449 13.9703 17.687 14.1856 17.5773 14.3755C17.4676 14.5654 17.3099 14.723 17.12 14.8326L15.4533 15.7952C15.1833 15.9521 14.8643 16.0023 14.5591 15.9359C14.254 15.8694 13.9847 15.6911 13.8044 15.4361C13.6241 15.1811 13.5458 14.8678 13.585 14.5579C13.6241 14.248 13.7778 13.964 14.0158 13.7618L13.705 13.5826C13.5617 13.5012 13.4359 13.3922 13.3349 13.2619C13.2339 13.1316 13.1597 12.9826 13.1165 12.8235C13.0733 12.6644 13.062 12.4984 13.0833 12.3349C13.1045 12.1714 13.1579 12.0138 13.2403 11.871C13.3227 11.7282 13.4326 11.6032 13.5635 11.503C13.6945 11.4029 13.8439 11.3297 14.0033 11.2875C14.1627 11.2454 14.3288 11.2352 14.4922 11.2575C14.6555 11.2799 14.8128 11.3343 14.955 11.4177L15.2658 11.5968C15.3193 11.3099 15.4715 11.0508 15.696 10.8644C15.9205 10.6779 16.2032 10.5759 16.495 10.576ZM10 14.1668C10.3217 14.1667 10.631 14.2906 10.8636 14.5127C11.0963 14.7348 11.2344 15.038 11.2492 15.3593C11.543 15.2551 11.8653 15.2644 12.1526 15.3856C12.4399 15.5067 12.6716 15.7308 12.8022 16.014C12.9328 16.2971 12.9528 16.6189 12.8583 16.916C12.7639 17.2132 12.5618 17.4643 12.2917 17.6201L10.625 18.5826C10.435 18.6924 10.2194 18.7501 10 18.7501C9.78059 18.7501 9.56503 18.6924 9.37501 18.5826L7.70834 17.6201C7.43776 17.4645 7.23521 17.2133 7.14052 16.9158C7.04582 16.6184 7.06584 16.2963 7.19664 16.0129C7.32743 15.7294 7.55954 15.5052 7.8473 15.3843C8.13507 15.2633 8.45768 15.2544 8.75167 15.3593C8.76646 15.0382 8.90443 14.735 9.13691 14.513C9.36939 14.2909 9.6785 14.1669 10 14.1668Z" fill="#003233"/>
</svg>
