<svg width="40" height="40" viewBox="0 0 40 40" fill="none" xmlns="http://www.w3.org/2000/svg">
<path d="M13.6666 26.3333V23.1666C13.6666 23.1666 16.0416 21.5833 20 21.5833C23.9583 21.5833 26.3333 23.1666 26.3333 23.1666V26.3333" stroke="#6CF3D5" stroke-width="2"/>
<path d="M12.0833 37.4167L10.5 29.5H29.5L27.9167 37.4167" stroke="#E2ECF1" stroke-width="2"/>
<path d="M16.4375 14.0625C16.4375 14.5303 16.5296 14.9936 16.7087 15.4258C16.8877 15.858 17.1501 16.2508 17.4809 16.5816C17.8117 16.9124 18.2045 17.1748 18.6367 17.3538C19.0689 17.5329 19.5322 17.625 20 17.625C20.4678 17.625 20.9311 17.5329 21.3633 17.3538C21.7955 17.1748 22.1883 16.9124 22.5191 16.5816C22.8499 16.2508 23.1123 15.858 23.2913 15.4258C23.4704 14.9936 23.5625 14.5303 23.5625 14.0625C23.5625 13.1177 23.1872 12.2115 22.5191 11.5434C21.851 10.8753 20.9448 10.5 20 10.5C19.0552 10.5 18.149 10.8753 17.4809 11.5434C16.8128 12.2115 16.4375 13.1177 16.4375 14.0625Z" stroke="#6CF3D5" stroke-width="2"/>
<path d="M9.70833 23.1666H5.75V4.16663H34.25V23.1666H30.2917" stroke="#E2ECF1" stroke-width="2"/>
</svg>
