<svg width="20" height="20" viewBox="0 0 20 20" fill="none" xmlns="http://www.w3.org/2000/svg">
<path fill-rule="evenodd" clip-rule="evenodd" d="M15.4167 3.33331C15.4167 3.00179 15.285 2.68385 15.0506 2.44943C14.8162 2.21501 14.4982 2.08331 14.1667 2.08331C13.8352 2.08331 13.5172 2.21501 13.2828 2.44943C13.0484 2.68385 12.9167 3.00179 12.9167 3.33331L12.9167 3.74998L3.33337 3.74998C3.00185 3.74998 2.68391 3.88168 2.44949 4.1161C2.21507 4.35052 2.08337 4.66846 2.08337 4.99998C2.08337 5.3315 2.21507 5.64944 2.44949 5.88386C2.68391 6.11828 3.00185 6.24998 3.33337 6.24998L12.9167 6.24998L12.9167 6.66665C12.9167 6.99817 13.0484 7.31611 13.2828 7.55053C13.5172 7.78495 13.8352 7.91665 14.1667 7.91665C14.4982 7.91665 14.8162 7.78495 15.0506 7.55053C15.285 7.31611 15.4167 6.99817 15.4167 6.66665L15.4167 6.24998L16.6667 6.24998C16.9982 6.24998 17.3162 6.11828 17.5506 5.88386C17.785 5.64944 17.9167 5.3315 17.9167 4.99998C17.9167 4.66846 17.785 4.35052 17.5506 4.1161C17.3162 3.88168 16.9982 3.74998 16.6667 3.74998L15.4167 3.74998L15.4167 3.33331ZM3.33337 8.74998C3.00185 8.74998 2.68391 8.88168 2.44949 9.1161C2.21507 9.35052 2.08337 9.66846 2.08337 9.99998C2.08337 10.3315 2.21507 10.6494 2.44949 10.8839C2.68391 11.1183 3.00185 11.25 3.33337 11.25L4.58337 11.25L4.58337 11.6666C4.58337 11.9982 4.71507 12.3161 4.94949 12.5505C5.18391 12.785 5.50185 12.9166 5.83337 12.9166C6.16489 12.9166 6.48284 12.785 6.71726 12.5505C6.95168 12.3161 7.08337 11.9982 7.08337 11.6666L7.08337 11.25L16.6667 11.25C16.9982 11.25 17.3162 11.1183 17.5506 10.8839C17.785 10.6494 17.9167 10.3315 17.9167 9.99998C17.9167 9.66846 17.785 9.35052 17.5506 9.1161C17.3162 8.88168 16.9982 8.74998 16.6667 8.74998L7.08337 8.74998L7.08337 8.33331C7.08337 8.16916 7.05104 8.00662 6.98822 7.85496C6.92541 7.7033 6.83333 7.5655 6.71726 7.44943C6.60118 7.33336 6.46339 7.24128 6.31173 7.17846C6.16007 7.11564 5.99753 7.08331 5.83337 7.08331C5.66922 7.08331 5.50668 7.11564 5.35502 7.17846C5.20336 7.24128 5.06556 7.33336 4.94949 7.44943C4.83342 7.5655 4.74134 7.7033 4.67852 7.85496C4.61571 8.00662 4.58337 8.16916 4.58337 8.33331L4.58337 8.74998L3.33337 8.74998ZM2.08337 15C2.08337 14.6685 2.21507 14.3505 2.44949 14.1161C2.68391 13.8817 3.00185 13.75 3.33337 13.75L12.9167 13.75L12.9167 13.3333C12.9167 13.0018 13.0484 12.6838 13.2828 12.4494C13.5172 12.215 13.8352 12.0833 14.1667 12.0833C14.4982 12.0833 14.8162 12.215 15.0506 12.4494C15.285 12.6838 15.4167 13.0018 15.4167 13.3333L15.4167 13.75L16.6667 13.75C16.9982 13.75 17.3162 13.8817 17.5506 14.1161C17.785 14.3505 17.9167 14.6685 17.9167 15C17.9167 15.3315 17.785 15.6494 17.5506 15.8839C17.3162 16.1183 16.9982 16.25 16.6667 16.25L15.4167 16.25L15.4167 16.6666C15.4167 16.9982 15.285 17.3161 15.0506 17.5505C14.8162 17.7849 14.4982 17.9166 14.1667 17.9166C13.8352 17.9166 13.5172 17.7849 13.2828 17.5505C13.0484 17.3161 12.9167 16.9982 12.9167 16.6666L12.9167 16.25L3.33337 16.25C3.00185 16.25 2.68391 16.1183 2.44949 15.8839C2.21507 15.6494 2.08337 15.3315 2.08337 15Z" fill="white"/>
</svg>
