<svg width="40" height="40" viewBox="0 0 40 40" fill="none" xmlns="http://www.w3.org/2000/svg">
<path d="M14.3444 22.0029H5.44287V31.7087C5.44287 32.8892 5.91179 34.0212 6.74647 34.8559C7.58114 35.6906 8.71321 36.1595 9.89362 36.1595C11.074 36.1595 12.2061 35.6906 13.0408 34.8559C13.8755 34.0212 14.3444 32.8892 14.3444 31.7087V22.0029Z" stroke="#E2ECF1" stroke-width="2"/>
<path d="M9.89526 21.8493V13.6825" stroke="#6CF3D5" stroke-width="2"/>
<path d="M11.5228 13.6635H8.27064L6.17114 10.7961L7.41406 4.96942H12.381L13.6223 10.7961L11.5228 13.6635Z" stroke="#6CF3D5" stroke-width="2"/>
<path d="M23.7035 9.7495L23.7066 4.667C22.2523 5.32977 21.024 6.40399 20.1733 7.75701C19.3227 9.11002 18.887 10.6826 18.92 12.2804C18.953 13.8783 19.4533 15.4315 20.3591 16.7482C21.2649 18.0649 22.5365 19.0875 24.017 19.6897V33.0213C24.017 33.8335 24.3396 34.6123 24.9138 35.1866C25.4881 35.7609 26.267 36.0835 27.0791 36.0835C27.8913 36.0835 28.6701 35.7609 29.2444 35.1866C29.8187 34.6123 30.1413 33.8335 30.1413 33.0213V19.6897C31.6216 19.0872 32.8931 18.0644 33.7988 16.7476C34.7045 15.4307 35.2047 13.8775 35.2377 12.2796C35.2707 10.6817 34.8351 9.10914 33.9845 7.75603C33.134 6.40291 31.9058 5.32849 30.4516 4.66542L30.4548 9.7495C30.4548 10.1928 30.3675 10.6318 30.1978 11.0413C30.0282 11.4509 29.7795 11.823 29.4661 12.1365C29.1526 12.4499 28.7805 12.6986 28.3709 12.8682C27.9614 13.0379 27.5224 13.1252 27.0791 13.1252C26.6358 13.1252 26.1969 13.0379 25.7873 12.8682C25.3778 12.6986 25.0056 12.4499 24.6922 12.1365C24.3787 11.823 24.1301 11.4509 23.9604 11.0413C23.7908 10.6318 23.7035 10.1928 23.7035 9.7495Z" stroke="#E2ECF1" stroke-width="2"/>
</svg>
