<svg width="413" height="448" viewBox="0 0 413 448" fill="none" xmlns="http://www.w3.org/2000/svg">
<path d="M327.001 31.6928L367.479 2.44565L410.18 31.7241L410.18 382.253L327.001 382.253L327.001 31.6928Z" fill="#E8ECEB" fill-opacity="0.32" stroke="#F4F8F7" stroke-width="4"/>
<path d="M196.507 79.7763L236.985 50.4479L279.686 79.8076L279.686 429.8L196.507 429.8L196.507 79.7763Z" fill="#E8ECEB" fill-opacity="0.32" stroke="#F4F8F7" stroke-width="4"/>
<path d="M-223.254 330.55C-223.614 328.029 -223.801 325.308 -223.898 323.161L-183.766 350.21L-182.643 350.967L-181.523 350.205L-141.191 322.751C-140.888 324.344 -140.577 325.607 -140.305 326.565C-140.09 327.325 -139.899 327.893 -139.757 328.283C-139.686 328.477 -139.628 328.628 -139.584 328.735C-139.565 328.781 -139.549 328.819 -139.536 328.85C-134.521 342.465 -121.096 357.76 -103.871 372.364C-86.5543 387.046 -65.1398 401.244 -43.824 412.589L-43.8168 412.593L-43.8095 412.597L-41.8506 413.619L-40.9254 414.102L-40.0002 413.619L-38.0412 412.597L-38.0336 412.593L-38.026 412.589C-13.8487 399.706 10.5061 383.151 28.8481 366.372C38.0175 357.985 45.7339 349.496 51.1721 341.338C56.5894 333.211 59.8719 325.224 59.8719 317.884V135.248L100.053 106.506L141.979 135.356V317.799C141.979 363.974 112.685 408.941 53.9755 451.455C15.2071 479.456 -22.7219 496.594 -24.2417 497.234L-24.2636 497.244L-24.2853 497.253L-41.0957 504.807L-57.9062 497.253L-57.9278 497.244L-57.9497 497.234C-59.4695 496.594 -97.3985 479.456 -136.167 451.455C-189.438 412.936 -218.316 372.314 -223.247 330.598L-223.25 330.574L-223.254 330.55Z" fill="#E8ECEB" fill-opacity="0.32" stroke="#F4F8F7" stroke-width="4"/>
</svg>
