<svg width="769" height="610" viewBox="0 0 769 610" fill="none" xmlns="http://www.w3.org/2000/svg">
<path d="M665.242 37.9405L714.368 2.44565L766.18 37.9718L766.18 460.527L665.242 460.527L665.242 37.9405Z" fill="#E8ECEB" stroke="#F4F8F7" stroke-width="4"/>
<path d="M508.165 95.8192L557.291 60.2257L609.103 95.8505L609.103 517.76L508.165 517.76L508.165 95.8192Z" fill="#E8ECEB" stroke="#F4F8F7" stroke-width="4"/>
<path d="M2.11345 388.794C2.10465 388.591 2.09654 388.394 2.08905 388.201L51.0647 421.211L52.188 421.968L53.3079 421.206L102.372 387.808C102.769 390.007 103.185 391.715 103.543 392.976C103.799 393.881 104.026 394.556 104.193 395.016C104.277 395.245 104.346 395.422 104.397 395.546C104.42 395.604 104.44 395.651 104.455 395.687C110.451 411.975 126.543 430.332 147.27 447.905C168.09 465.557 193.842 482.631 219.478 496.275L219.485 496.279L219.492 496.283L221.85 497.514L222.775 497.996L223.7 497.513L226.058 496.283L226.066 496.279L226.074 496.275C255.152 480.78 284.439 460.872 306.487 440.704C317.509 430.621 326.773 420.427 333.294 410.644C339.795 400.891 343.698 391.358 343.698 382.638V162.589L392.467 127.705L443.345 162.715V382.536C443.345 438.308 407.961 492.541 337.246 543.749C290.549 577.476 244.865 598.12 243.015 598.899L242.994 598.908L242.972 598.918L222.57 608.086L202.168 598.918L202.147 598.908L202.125 598.899C200.275 598.12 154.591 577.476 107.894 543.749C43.7271 497.351 8.8638 448.365 2.90885 397.99L2.90601 397.966L2.90258 397.942C2.45444 394.804 2.22746 391.416 2.11345 388.794Z" fill="#E8ECEB" stroke="#F4F8F7" stroke-width="4"/>
</svg>
