<svg width="242" height="264" viewBox="0 0 242 264" fill="none" xmlns="http://www.w3.org/2000/svg">
<path d="M2.48076 147.886C2.32158 146.771 2.21449 145.592 2.14275 144.51L27.2085 161.405L28.3318 162.162L29.4517 161.4L54.9453 144.046C55.0771 144.642 55.2071 145.148 55.3267 145.569C55.4719 146.082 55.6017 146.469 55.7003 146.74C55.7496 146.875 55.7912 146.981 55.823 147.059C55.8307 147.078 55.8379 147.096 55.8444 147.112C55.8469 147.117 55.8492 147.123 55.8514 147.128C59.1978 156.197 68.0843 166.281 79.3517 175.834C90.7094 185.464 104.744 194.768 118.71 202.201L118.717 202.205L118.724 202.209L120.004 202.876L120.929 203.359L121.855 202.876L123.135 202.209L123.142 202.205L123.15 202.201C138.988 193.761 154.952 182.912 166.988 171.902C173.004 166.399 178.089 160.81 181.683 155.417C185.257 150.056 187.484 144.701 187.484 139.708V20.7285L213.054 2.4388L239.747 20.8073V139.652C239.747 169.501 220.814 198.702 182.531 226.424C157.253 244.68 132.521 255.854 131.562 256.258L131.54 256.267L131.518 256.277L120.818 261.085L110.118 256.277L110.096 256.267L110.075 256.258C109.116 255.854 84.3817 244.68 59.1036 226.423C24.3703 201.307 5.67673 174.917 2.48703 147.934L2.48419 147.91L2.48076 147.886Z" fill="#E8ECEB" stroke="#F4F8F7" stroke-width="4"/>
</svg>
