<svg width="137" height="72" viewBox="0 0 137 72" fill="none" xmlns="http://www.w3.org/2000/svg">
<path d="M97.482 26.6879L98.478 29.1779H100.098L95.604 18.1619H94.524L90 29.1779H91.602L92.598 26.6879H97.482ZM95.046 20.5739L96.966 25.3859H93.126L95.052 20.5739H95.046Z" fill="#F4F8F7"/>
<path d="M103.242 18.1619H101.748V29.1779H102.762H103.242H108.672V27.8159H103.242V18.1619Z" fill="#F4F8F7"/>
<path d="M110.604 27.6779C111.114 28.1999 111.702 28.6079 112.38 28.9019C113.058 29.1959 113.79 29.3399 114.57 29.3399C115.35 29.3399 116.064 29.1959 116.736 28.9019C117.408 28.6139 117.996 28.2059 118.5 27.6899C119.004 27.1739 119.394 26.5679 119.682 25.8779C119.97 25.1879 120.108 24.4559 120.108 23.6699C120.108 22.8839 119.964 22.1339 119.682 21.4499C119.394 20.7599 118.998 20.1599 118.494 19.6379C117.99 19.1159 117.396 18.7199 116.724 18.4319C116.052 18.1439 115.326 18.0059 114.54 18.0059C113.754 18.0059 113.028 18.1499 112.356 18.4319C111.684 18.7199 111.096 19.1219 110.592 19.6379C110.088 20.1539 109.698 20.7599 109.41 21.4379C109.122 22.1219 108.984 22.8599 108.984 23.6519C108.984 24.4439 109.128 25.1699 109.41 25.8599C109.698 26.5499 110.094 27.1559 110.598 27.6779H110.604ZM111.054 21.4619C111.396 20.8259 111.87 20.3279 112.464 19.9679C113.064 19.6079 113.754 19.4279 114.534 19.4279C115.128 19.4279 115.668 19.5299 116.154 19.7399C116.64 19.9439 117.066 20.2379 117.426 20.6219C117.786 21.0059 118.062 21.4499 118.26 21.9659C118.458 22.4819 118.554 23.0459 118.554 23.6579C118.554 24.4859 118.38 25.2179 118.038 25.8599C117.696 26.5019 117.222 26.9999 116.616 27.3659C116.01 27.7319 115.32 27.9119 114.534 27.9119C113.952 27.9119 113.412 27.8039 112.92 27.5939C112.428 27.3839 112.002 27.0899 111.648 26.7119C111.294 26.3339 111.018 25.8839 110.82 25.3619C110.622 24.8399 110.526 24.2699 110.526 23.6579C110.526 22.8299 110.7 22.1039 111.042 21.4679L111.054 21.4619Z" fill="#F4F8F7"/>
<path d="M123.66 18.1619H122.166V29.1779H123.66V18.1619Z" fill="#F4F8F7"/>
<path d="M132.834 26.2259C132.834 25.6439 132.738 25.1579 132.54 24.7739C132.342 24.3899 132.09 24.0719 131.772 23.8319C131.454 23.5859 131.106 23.3879 130.722 23.2259C130.344 23.0699 129.96 22.9199 129.57 22.7879C129.186 22.6559 128.832 22.5119 128.514 22.3499C128.196 22.1939 127.938 21.9959 127.746 21.7679C127.548 21.5399 127.452 21.2399 127.452 20.8739C127.452 20.4059 127.626 20.0459 127.974 19.7879C128.322 19.5299 128.796 19.3979 129.384 19.3979C129.87 19.3979 130.302 19.4939 130.68 19.6859C131.058 19.8779 131.406 20.1599 131.736 20.5439L132.75 19.5299C132.39 19.0739 131.922 18.7079 131.352 18.4259C130.782 18.1439 130.134 18.0059 129.414 18.0059C128.76 18.0059 128.166 18.1259 127.644 18.3659C127.122 18.6059 126.708 18.9419 126.408 19.3799C126.108 19.8179 125.958 20.3519 125.958 20.9759C125.958 21.5459 126.054 22.0139 126.246 22.3799C126.438 22.7459 126.69 23.0459 127.014 23.2739C127.338 23.5079 127.686 23.6999 128.07 23.8559C128.454 24.0119 128.832 24.1499 129.216 24.2759C129.6 24.4019 129.948 24.5459 130.266 24.7139C130.584 24.8759 130.842 25.0859 131.034 25.3439C131.232 25.5959 131.328 25.9319 131.328 26.3459C131.328 26.8439 131.13 27.2339 130.734 27.5219C130.338 27.8099 129.81 27.9479 129.156 27.9479C128.502 27.9479 127.926 27.8219 127.476 27.5759C127.02 27.3299 126.618 26.9579 126.27 26.4719L125.256 27.4859C125.73 28.0919 126.276 28.5479 126.888 28.8659C127.5 29.1839 128.238 29.3399 129.096 29.3399C130.248 29.3399 131.16 29.0639 131.832 28.5119C132.504 27.9599 132.84 27.1979 132.84 26.2259H132.834Z" fill="#F4F8F7"/>
<path d="M136.344 18.1619H134.85V29.1779H136.344V18.1619Z" fill="#F4F8F7"/>
<path d="M90.516 37.1521H90V41.8741H90.516V37.1521Z" fill="#F4F8F7"/>
<path d="M92.5801 39.0658C92.5801 38.7598 92.6461 38.4958 92.7781 38.2618C92.9101 38.0338 93.0901 37.8478 93.3241 37.7158C93.5581 37.5838 93.8281 37.5178 94.1281 37.5178C94.5721 37.5178 94.9321 37.6618 95.1961 37.9438C95.4661 38.2258 95.5981 38.5978 95.5981 39.0598V41.8618H96.1141V38.9998C96.1141 38.6338 96.0361 38.3038 95.8801 38.0038C95.7241 37.7038 95.5081 37.4698 95.2261 37.2958C94.9441 37.1218 94.6201 37.0378 94.2481 37.0378C93.8761 37.0378 93.5521 37.1218 93.2581 37.2838C92.9701 37.4458 92.7421 37.6618 92.5741 37.9378V37.1458H92.0581V41.8678H92.5741V39.0658H92.5801Z" fill="#F4F8F7"/>
<path d="M100.932 42.9959C100.578 43.3199 100.104 43.4819 99.5101 43.4819C99.0961 43.4819 98.7361 43.4039 98.4241 43.2539C98.1121 43.1039 97.8661 42.8999 97.6861 42.6419L97.3501 42.9659C97.5781 43.2899 97.8781 43.5419 98.2501 43.7099C98.6161 43.8839 99.0361 43.9679 99.5041 43.9679C99.9961 43.9679 100.434 43.8719 100.806 43.6859C101.178 43.4939 101.466 43.2299 101.676 42.8879C101.88 42.5459 101.988 42.1439 101.988 41.6819V37.1459H101.472V38.1179C101.424 38.0219 101.376 37.9199 101.31 37.8359C101.118 37.5839 100.878 37.3919 100.584 37.2539C100.29 37.1159 99.9601 37.0439 99.5941 37.0439C99.1561 37.0439 98.7541 37.1519 98.4001 37.3559C98.0461 37.5659 97.7641 37.8539 97.5661 38.2139C97.3681 38.5739 97.2661 38.9819 97.2661 39.4379C97.2661 39.8939 97.3681 40.3079 97.5721 40.6739C97.7761 41.0339 98.0521 41.3219 98.4121 41.5259C98.7661 41.7299 99.1681 41.8379 99.6121 41.8379C99.9721 41.8379 100.296 41.7719 100.584 41.6339C100.872 41.4959 101.112 41.3039 101.304 41.0519C101.37 40.9619 101.418 40.8659 101.472 40.7639V41.6879C101.472 42.2339 101.298 42.6719 100.944 42.9959H100.932ZM101.262 40.4519C101.112 40.7399 100.896 40.9619 100.626 41.1239C100.356 41.2799 100.038 41.3639 99.6841 41.3639C99.3301 41.3639 98.9941 41.2799 98.7061 41.1179C98.4181 40.9499 98.1961 40.7219 98.0341 40.4339C97.8721 40.1459 97.7881 39.8099 97.7881 39.4379C97.7881 39.0659 97.8721 38.7359 98.0341 38.4539C98.1961 38.1719 98.4181 37.9439 98.7061 37.7819C98.9881 37.6199 99.3121 37.5359 99.6781 37.5359C100.044 37.5359 100.356 37.6199 100.626 37.7819C100.902 37.9439 101.112 38.1659 101.268 38.4539C101.418 38.7359 101.496 39.0719 101.496 39.4499C101.496 39.8279 101.418 40.1699 101.268 40.4579L101.262 40.4519Z" fill="#F4F8F7"/>
<path d="M104.394 41.6461C104.766 41.8621 105.192 41.9701 105.666 41.9701C106.044 41.9701 106.398 41.8981 106.722 41.7541C107.046 41.6101 107.322 41.4061 107.544 41.1481L107.196 40.8121C107.022 41.0341 106.8 41.202 106.542 41.316C106.284 41.43 106.002 41.484 105.696 41.484C105.294 41.484 104.946 41.4001 104.652 41.2381C104.352 41.0701 104.124 40.842 103.956 40.536C103.824 40.296 103.758 40.0081 103.734 39.6961H107.76C107.772 39.6061 107.784 39.534 107.79 39.468C107.796 39.402 107.802 39.3541 107.802 39.3121C107.802 38.8681 107.706 38.472 107.52 38.136C107.334 37.8 107.076 37.53 106.746 37.338C106.416 37.146 106.038 37.05 105.612 37.05C105.156 37.05 104.748 37.158 104.376 37.374C104.01 37.59 103.716 37.884 103.506 38.25C103.296 38.616 103.194 39.0361 103.194 39.5041C103.194 39.9721 103.302 40.3921 103.518 40.7641C103.734 41.1361 104.028 41.4301 104.4 41.6461H104.394ZM103.944 38.46C104.1 38.172 104.322 37.938 104.61 37.776C104.892 37.608 105.222 37.53 105.594 37.53C105.966 37.53 106.26 37.6081 106.518 37.7641C106.776 37.9201 106.974 38.136 107.106 38.418C107.22 38.664 107.274 38.946 107.28 39.258H103.728C103.752 38.964 103.818 38.7 103.944 38.466V38.46Z" fill="#F4F8F7"/>
<path d="M113.4 37.1521H112.884V38.124C112.836 38.028 112.788 37.926 112.722 37.842C112.53 37.59 112.29 37.3981 111.996 37.2601C111.702 37.1221 111.372 37.05 111.006 37.05C110.568 37.05 110.166 37.158 109.812 37.362C109.458 37.572 109.176 37.8601 108.978 38.2201C108.78 38.5801 108.678 38.988 108.678 39.444C108.678 39.9 108.78 40.3141 108.984 40.6801C109.188 41.0401 109.464 41.328 109.824 41.532C110.178 41.736 110.58 41.844 111.03 41.844C111.39 41.844 111.714 41.778 112.002 41.64C112.29 41.502 112.53 41.31 112.722 41.058C112.788 40.968 112.836 40.8721 112.89 40.7701V41.694C112.89 42.24 112.716 42.678 112.362 43.002C112.008 43.326 111.534 43.4881 110.94 43.4881C110.526 43.4881 110.166 43.41 109.854 43.26C109.542 43.11 109.296 42.9061 109.116 42.6481L108.78 42.9721C109.008 43.2961 109.308 43.548 109.68 43.716C110.046 43.89 110.466 43.974 110.934 43.974C111.426 43.974 111.864 43.878 112.236 43.692C112.608 43.5 112.896 43.236 113.106 42.894C113.31 42.552 113.418 42.1501 113.418 41.6881V37.1521H113.4ZM112.686 40.458C112.536 40.746 112.32 40.9681 112.05 41.1301C111.78 41.2861 111.462 41.3701 111.108 41.3701C110.754 41.3701 110.418 41.286 110.13 41.124C109.842 40.956 109.62 40.728 109.458 40.44C109.296 40.152 109.212 39.816 109.212 39.444C109.212 39.072 109.296 38.742 109.458 38.46C109.62 38.178 109.842 37.95 110.13 37.788C110.412 37.626 110.742 37.542 111.102 37.542C111.462 37.542 111.78 37.626 112.05 37.788C112.326 37.95 112.536 38.172 112.692 38.46C112.842 38.742 112.92 39.0781 112.92 39.4561C112.92 39.8341 112.842 40.1761 112.692 40.4641L112.686 40.458Z" fill="#F4F8F7"/>
<path d="M118.452 39.0659V41.8679H118.968V39.0059C118.968 38.6399 118.89 38.3099 118.734 38.0099C118.578 37.7099 118.362 37.4759 118.08 37.3019C117.798 37.1279 117.474 37.0439 117.102 37.0439C116.73 37.0439 116.406 37.1279 116.112 37.2899C115.824 37.4519 115.596 37.6679 115.428 37.9439V37.1519H114.912V41.8739H115.428V39.0719C115.428 38.7659 115.494 38.5019 115.626 38.2679C115.758 38.0399 115.938 37.8539 116.172 37.7219C116.406 37.5899 116.676 37.5239 116.976 37.5239C117.42 37.5239 117.78 37.6679 118.044 37.9499C118.314 38.2319 118.446 38.6039 118.446 39.0659H118.452Z" fill="#F4F8F7"/>
<path d="M124.452 41.1481L124.104 40.8121C123.93 41.0341 123.708 41.202 123.45 41.316C123.192 41.43 122.91 41.484 122.604 41.484C122.202 41.484 121.854 41.4001 121.56 41.2381C121.26 41.0701 121.032 40.842 120.864 40.536C120.732 40.296 120.666 40.0081 120.642 39.6961H124.668C124.68 39.6061 124.692 39.534 124.698 39.468C124.704 39.402 124.71 39.3541 124.71 39.3121C124.71 38.8681 124.614 38.472 124.428 38.136C124.242 37.8 123.984 37.53 123.654 37.338C123.324 37.146 122.946 37.05 122.52 37.05C122.064 37.05 121.656 37.158 121.284 37.374C120.918 37.59 120.624 37.884 120.414 38.25C120.204 38.616 120.102 39.0361 120.102 39.5041C120.102 39.9721 120.21 40.3921 120.426 40.7641C120.642 41.1361 120.936 41.4301 121.308 41.6461C121.68 41.8621 122.106 41.9701 122.58 41.9701C122.958 41.9701 123.312 41.8981 123.636 41.7541C123.96 41.6101 124.236 41.4061 124.458 41.1481H124.452ZM120.852 38.46C121.008 38.172 121.23 37.938 121.518 37.776C121.8 37.608 122.13 37.53 122.502 37.53C122.874 37.53 123.168 37.6081 123.426 37.7641C123.684 37.9201 123.882 38.136 124.014 38.418C124.128 38.664 124.182 38.946 124.188 39.258H120.636C120.66 38.964 120.726 38.7 120.852 38.466V38.46Z" fill="#F4F8F7"/>
<path d="M127.806 37.05C127.314 37.05 126.912 37.218 126.606 37.554C126.528 37.638 126.462 37.734 126.402 37.836V37.1521H125.886V41.874H126.402V39.06C126.402 38.568 126.522 38.19 126.768 37.926C127.014 37.668 127.326 37.536 127.71 37.536C127.914 37.536 128.088 37.566 128.238 37.626C128.388 37.686 128.526 37.788 128.652 37.932L129 37.566C128.832 37.386 128.646 37.254 128.448 37.17C128.25 37.086 128.034 37.05 127.806 37.05Z" fill="#F4F8F7"/>
<path d="M130.362 37.1521H129.846V41.8741H130.362V37.1521Z" fill="#F4F8F7"/>
<path d="M135.822 38.1179C135.774 38.0219 135.726 37.9199 135.666 37.8359C135.48 37.5839 135.24 37.3919 134.958 37.2539C134.67 37.1159 134.346 37.0439 133.98 37.0439C133.536 37.0439 133.128 37.1519 132.774 37.3739C132.414 37.5959 132.132 37.8899 131.922 38.2619C131.712 38.6339 131.61 39.0479 131.61 39.5099C131.61 39.9719 131.712 40.3979 131.922 40.7639C132.132 41.1299 132.414 41.4239 132.774 41.6399C133.134 41.8559 133.542 41.9639 134.004 41.9639C134.358 41.9639 134.676 41.8919 134.958 41.7539C135.24 41.6159 135.48 41.4179 135.666 41.1659C135.732 41.0759 135.78 40.9679 135.834 40.8659V41.8619H136.35V37.1399H135.834V38.1119L135.822 38.1179ZM135.36 40.9379C135.036 41.2979 134.61 41.4779 134.064 41.4779C133.692 41.4779 133.362 41.3939 133.068 41.2259C132.774 41.0579 132.546 40.8239 132.384 40.5239C132.216 40.2239 132.138 39.8819 132.138 39.4979C132.138 39.1139 132.222 38.7779 132.384 38.4839C132.552 38.1839 132.774 37.9499 133.062 37.7819C133.35 37.6139 133.68 37.5299 134.052 37.5299C134.424 37.5299 134.724 37.6139 134.988 37.7759C135.258 37.9439 135.462 38.1719 135.612 38.4719C135.762 38.7719 135.834 39.1139 135.834 39.5099C135.834 40.0979 135.672 40.5719 135.354 40.9379H135.36Z" fill="#F4F8F7"/>
<path d="M90.534 49.02H90V53.898H90.534V49.02Z" fill="#F4F8F7"/>
<path d="M95.4119 49.1819C95.1239 49.0019 94.7819 48.9119 94.3979 48.9119C94.0139 48.9119 93.6779 48.9959 93.3719 49.1639C93.0719 49.3259 92.8379 49.5539 92.6639 49.8359V49.0139H92.1299V53.8919H92.6639V50.9939C92.6639 50.6819 92.7299 50.3999 92.8679 50.1659C93.0059 49.9259 93.1919 49.7399 93.4379 49.6019C93.6779 49.4639 93.9599 49.3979 94.2719 49.3979C94.7339 49.3979 95.0999 49.5419 95.3759 49.8359C95.6519 50.1299 95.7899 50.5139 95.7899 50.9879V53.8859H96.3239V50.9279C96.3239 50.5499 96.2459 50.2079 96.0839 49.9019C95.9219 49.5959 95.6999 49.3499 95.4059 49.1699L95.4119 49.1819Z" fill="#F4F8F7"/>
<path d="M101.856 50.0222C101.802 49.9202 101.748 49.8182 101.676 49.7222C101.466 49.4582 101.208 49.2602 100.902 49.1162C100.596 48.9782 100.266 48.9062 99.8998 48.9062C99.4438 48.9062 99.0358 49.0202 98.6698 49.2422C98.3038 49.4642 98.0218 49.7702 97.8118 50.1542C97.6018 50.5382 97.4998 50.9702 97.4998 51.4562C97.4998 51.9422 97.6018 52.3742 97.8118 52.7522C98.0218 53.1362 98.3098 53.4362 98.6698 53.6582C99.0358 53.8802 99.4438 53.9942 99.8998 53.9942C100.272 53.9942 100.608 53.9222 100.914 53.7722C101.22 53.6222 101.472 53.4182 101.676 53.1602C101.748 53.0702 101.802 52.9622 101.856 52.8602V53.8922H102.39V46.5242H101.856V50.0162V50.0222ZM101.64 52.5182C101.484 52.8242 101.262 53.0642 100.98 53.2382C100.698 53.4122 100.368 53.5022 99.9958 53.5022C99.6238 53.5022 99.2818 53.4122 98.9878 53.2382C98.6938 53.0642 98.4658 52.8242 98.2978 52.5122C98.1298 52.2062 98.0458 51.8522 98.0458 51.4502C98.0458 51.0482 98.1298 50.7002 98.2978 50.3942C98.4658 50.0882 98.6938 49.8482 98.9878 49.6742C99.2758 49.5002 99.6118 49.4102 99.9778 49.4102C100.344 49.4102 100.686 49.5002 100.968 49.6742C101.25 49.8482 101.472 50.0882 101.634 50.3942C101.796 50.7002 101.874 51.0542 101.874 51.4562C101.874 51.8582 101.796 52.2062 101.64 52.5122V52.5182Z" fill="#F4F8F7"/>
<path d="M107.358 51.8399C107.358 52.3379 107.226 52.7399 106.956 53.0399C106.686 53.3459 106.326 53.4959 105.87 53.4959C105.576 53.4959 105.318 53.4239 105.096 53.2859C104.874 53.1479 104.7 52.9499 104.574 52.7039C104.454 52.4579 104.388 52.1699 104.388 51.8399V49.0139H103.854V51.8579C103.854 52.2779 103.938 52.6499 104.112 52.9679C104.286 53.2919 104.52 53.5379 104.832 53.7179C105.138 53.8979 105.492 53.9879 105.882 53.9879C106.272 53.9879 106.62 53.8979 106.926 53.7179C107.232 53.5379 107.466 53.2919 107.64 52.9679C107.814 52.6439 107.898 52.2779 107.898 51.8579V49.0139H107.364V51.8399H107.358Z" fill="#F4F8F7"/>
<path d="M110.796 49.3979C111.09 49.3979 111.354 49.4519 111.588 49.5599C111.822 49.6679 112.014 49.8179 112.158 50.0159L112.506 49.6619C112.332 49.4159 112.098 49.2299 111.81 49.1039C111.522 48.9779 111.192 48.9119 110.826 48.9119C110.496 48.9119 110.208 48.9659 109.968 49.0739C109.722 49.1819 109.536 49.3319 109.404 49.5299C109.272 49.7279 109.212 49.9559 109.212 50.2139C109.212 50.5079 109.278 50.7419 109.41 50.9219C109.542 51.1019 109.716 51.2399 109.932 51.3359C110.148 51.4319 110.37 51.5159 110.604 51.5819C110.838 51.6479 111.06 51.7199 111.276 51.7979C111.492 51.8759 111.66 51.9839 111.798 52.1159C111.93 52.2539 111.996 52.4399 111.996 52.6799C111.996 52.9439 111.894 53.1539 111.684 53.2979C111.474 53.4419 111.186 53.5199 110.826 53.5199C110.514 53.5199 110.22 53.4599 109.962 53.3339C109.698 53.2139 109.47 53.0219 109.272 52.7639L108.918 53.1179C109.062 53.2919 109.23 53.4479 109.422 53.5799C109.608 53.7119 109.824 53.8139 110.064 53.8919C110.304 53.9639 110.556 53.9999 110.82 53.9999C111.336 53.9999 111.75 53.8739 112.056 53.6279C112.362 53.3819 112.518 53.0459 112.518 52.6259C112.518 52.3079 112.452 52.0619 112.32 51.8819C112.188 51.7019 112.014 51.5579 111.798 51.4499C111.582 51.3479 111.36 51.2579 111.126 51.1919C110.892 51.1259 110.67 51.0599 110.454 50.9879C110.238 50.9159 110.07 50.8199 109.932 50.6939C109.8 50.5679 109.734 50.3939 109.734 50.1779C109.734 49.9619 109.824 49.7699 110.01 49.6139C110.19 49.4639 110.46 49.3859 110.808 49.3859L110.796 49.3979Z" fill="#F4F8F7"/>
<path d="M115.062 46.95H114.522V49.02H113.262V49.488H114.522V53.898H115.062V49.488H116.316V49.02H115.062V46.95Z" fill="#F4F8F7"/>
<path d="M119.382 48.9119C118.872 48.9119 118.458 49.0859 118.146 49.4339C118.068 49.5239 117.996 49.6199 117.936 49.7279V49.0199H117.402V53.8979H117.936V50.9879C117.936 50.4779 118.062 50.0879 118.314 49.8179C118.566 49.5479 118.89 49.4159 119.292 49.4159C119.502 49.4159 119.682 49.4459 119.838 49.5119C119.994 49.5779 120.138 49.6799 120.27 49.8299L120.624 49.4519C120.45 49.2659 120.258 49.1279 120.054 49.0439C119.85 48.9599 119.628 48.9179 119.388 48.9179L119.382 48.9119Z" fill="#F4F8F7"/>
<path d="M122.028 49.02H121.494V53.898H122.028V49.02Z" fill="#F4F8F7"/>
<path d="M127.674 50.0219C127.626 49.9199 127.578 49.8179 127.512 49.7339C127.32 49.4759 127.074 49.2719 126.78 49.1279C126.48 48.9839 126.144 48.9119 125.766 48.9119C125.304 48.9119 124.89 49.0259 124.518 49.2539C124.146 49.4819 123.852 49.7879 123.636 50.1719C123.42 50.5559 123.312 50.9879 123.312 51.4619C123.312 51.9359 123.42 52.3799 123.636 52.7579C123.852 53.1419 124.146 53.4419 124.518 53.6639C124.89 53.8859 125.31 53.9999 125.79 53.9999C126.156 53.9999 126.48 53.9279 126.774 53.7839C127.068 53.6399 127.308 53.4359 127.506 53.1779C127.578 53.0819 127.626 52.9739 127.68 52.8719V53.8979H128.214V49.0199H127.68V50.0219H127.674ZM127.194 52.9379C126.864 53.3099 126.414 53.5019 125.856 53.5019C125.472 53.5019 125.13 53.4119 124.83 53.2379C124.53 53.0639 124.29 52.8239 124.122 52.5119C123.948 52.2059 123.864 51.8519 123.864 51.4499C123.864 51.0479 123.948 50.7059 124.122 50.3999C124.296 50.0939 124.53 49.8479 124.824 49.6739C125.124 49.4999 125.46 49.4099 125.85 49.4099C126.24 49.4099 126.546 49.4939 126.822 49.6679C127.098 49.8419 127.314 50.0819 127.47 50.3879C127.626 50.6939 127.704 51.0539 127.704 51.4559C127.704 52.0619 127.536 52.5539 127.206 52.9319L127.194 52.9379Z" fill="#F4F8F7"/>
<path d="M130.314 46.53H129.78V53.898H130.314V46.53Z" fill="#F4F8F7"/>
<path d="M135.252 49.2119C134.91 49.0139 134.52 48.9119 134.076 48.9119C133.608 48.9119 133.182 49.0259 132.804 49.2479C132.42 49.4699 132.126 49.7759 131.904 50.1539C131.688 50.5379 131.58 50.9699 131.58 51.4499C131.58 51.9299 131.694 52.3679 131.916 52.7519C132.138 53.1359 132.444 53.4419 132.828 53.6639C133.212 53.8859 133.65 53.9999 134.142 53.9999C134.532 53.9999 134.898 53.9219 135.234 53.7719C135.57 53.6219 135.852 53.4119 136.086 53.1479L135.732 52.7999C135.552 53.0279 135.324 53.2019 135.054 53.3219C134.784 53.4359 134.49 53.4959 134.178 53.4959C133.764 53.4959 133.404 53.4119 133.098 53.2379C132.792 53.0639 132.552 52.8239 132.378 52.5119C132.24 52.2599 132.174 51.9659 132.144 51.6479H136.308C136.32 51.5579 136.332 51.4799 136.338 51.4139C136.344 51.3479 136.35 51.2939 136.35 51.2519C136.35 50.7899 136.254 50.3819 136.062 50.0339C135.87 49.6859 135.6 49.4099 135.258 49.2119H135.252ZM132.36 50.3699C132.522 50.0699 132.756 49.8359 133.05 49.6619C133.344 49.4879 133.686 49.4039 134.07 49.4039C134.454 49.4039 134.76 49.4819 135.024 49.6439C135.288 49.8059 135.492 50.0279 135.63 50.3219C135.75 50.5739 135.804 50.8679 135.81 51.1859H132.144C132.168 50.8859 132.234 50.6039 132.366 50.3699H132.36Z" fill="#F4F8F7"/>
<path fill-rule="evenodd" clip-rule="evenodd" d="M0 0H72V72H0V0ZM29.712 22.302L41.652 18L54 49.686L42.024 54L30.516 24.312L21.798 48.072H30.474V49.818H21.138L19.854 53.214L19.8 53.352L18 54.006V54L18.006 53.994L18.402 52.914L19.068 51.108L29.712 22.302Z" fill="#F4F8F7"/>
</svg>
