<svg width="107" height="56" viewBox="0 0 107 56" fill="none" xmlns="http://www.w3.org/2000/svg">
<path d="M75.8193 20.7573L76.594 22.694H77.854L74.3587 14.126H73.5187L70 22.694H71.246L72.0207 20.7573H75.8193ZM73.9247 16.002L75.418 19.7446H72.4313L73.9293 16.002H73.9247Z" fill="#F4F8F7"/>
<path d="M80.2995 14.126H79.1375V22.694H79.9261H80.2995H84.5228V21.6346H80.2995V14.126Z" fill="#F4F8F7"/>
<path d="M86.0254 21.5273C86.422 21.9333 86.8794 22.2506 87.4067 22.4793C87.934 22.708 88.5034 22.82 89.11 22.82C89.7167 22.82 90.272 22.708 90.7947 22.4793C91.3174 22.2553 91.7747 21.938 92.1667 21.5366C92.5587 21.1353 92.862 20.664 93.086 20.1273C93.31 19.5906 93.4174 19.0213 93.4174 18.41C93.4174 17.7986 93.3054 17.2153 93.086 16.6833C92.862 16.1466 92.554 15.68 92.162 15.274C91.7701 14.868 91.308 14.56 90.7854 14.336C90.2627 14.112 89.698 14.0046 89.0867 14.0046C88.4754 14.0046 87.9107 14.1166 87.388 14.336C86.8654 14.56 86.4081 14.8726 86.0161 15.274C85.6241 15.6753 85.3207 16.1466 85.0967 16.674C84.8727 17.206 84.7654 17.78 84.7654 18.396C84.7654 19.012 84.8774 19.5766 85.0967 20.1133C85.3207 20.65 85.6287 21.1213 86.0207 21.5273H86.0254ZM86.3754 16.6926C86.6414 16.198 87.01 15.8106 87.472 15.5306C87.9387 15.2506 88.4754 15.1106 89.082 15.1106C89.544 15.1106 89.964 15.19 90.342 15.3533C90.72 15.512 91.0514 15.7406 91.3314 16.0393C91.6114 16.338 91.8261 16.6833 91.9801 17.0846C92.1341 17.486 92.2087 17.9246 92.2087 18.4006C92.2087 19.0446 92.0734 19.614 91.8074 20.1133C91.5414 20.6126 91.1727 21 90.7014 21.2846C90.23 21.5693 89.6934 21.7093 89.082 21.7093C88.6294 21.7093 88.2094 21.6253 87.8267 21.462C87.444 21.2986 87.1127 21.07 86.8374 20.776C86.562 20.482 86.3474 20.132 86.1934 19.726C86.0394 19.32 85.9647 18.8766 85.9647 18.4006C85.9647 17.7566 86.1001 17.192 86.3661 16.6973L86.3754 16.6926Z" fill="#F4F8F7"/>
<path d="M96.1801 14.126H95.0181V22.694H96.1801V14.126Z" fill="#F4F8F7"/>
<path d="M103.315 20.398C103.315 19.9453 103.241 19.5673 103.087 19.2686C102.933 18.97 102.737 18.7226 102.489 18.536C102.242 18.3446 101.971 18.1906 101.673 18.0646C101.379 17.9433 101.08 17.8266 100.777 17.724C100.478 17.6213 100.203 17.5093 99.9554 17.3833C99.7081 17.262 99.5074 17.108 99.3581 16.9306C99.2041 16.7533 99.1294 16.52 99.1294 16.2353C99.1294 15.8713 99.2647 15.5913 99.5354 15.3906C99.8061 15.19 100.175 15.0873 100.632 15.0873C101.01 15.0873 101.346 15.162 101.64 15.3113C101.934 15.4606 102.205 15.68 102.461 15.9786L103.25 15.19C102.97 14.8353 102.606 14.5506 102.163 14.3313C101.719 14.112 101.215 14.0046 100.655 14.0046C100.147 14.0046 99.6847 14.098 99.2787 14.2846C98.8727 14.4713 98.5507 14.7326 98.3174 15.0733C98.0841 15.414 97.9674 15.8293 97.9674 16.3146C97.9674 16.758 98.0421 17.122 98.1914 17.4066C98.3407 17.6913 98.5367 17.9246 98.7887 18.102C99.0407 18.284 99.3114 18.4333 99.6101 18.5546C99.9087 18.676 100.203 18.7833 100.501 18.8813C100.8 18.9793 101.071 19.0913 101.318 19.222C101.565 19.348 101.766 19.5113 101.915 19.712C102.069 19.908 102.144 20.1693 102.144 20.4913C102.144 20.8786 101.99 21.182 101.682 21.406C101.374 21.63 100.963 21.7373 100.455 21.7373C99.9461 21.7373 99.4981 21.6393 99.1481 21.448C98.7934 21.2566 98.4807 20.9673 98.2101 20.5893L97.4214 21.378C97.7901 21.8493 98.2147 22.204 98.6907 22.4513C99.1667 22.6986 99.7407 22.82 100.408 22.82C101.304 22.82 102.013 22.6053 102.536 22.176C103.059 21.7466 103.32 21.154 103.32 20.398H103.315Z" fill="#F4F8F7"/>
<path d="M106.046 14.126H104.884V22.694H106.046V14.126Z" fill="#F4F8F7"/>
<path d="M70.4013 28.896H70V32.5687H70.4013V28.896Z" fill="#F4F8F7"/>
<path d="M72.0066 30.3846C72.0066 30.1466 72.0579 29.9413 72.1606 29.7593C72.2633 29.5819 72.4033 29.4373 72.5853 29.3346C72.7673 29.2319 72.9773 29.1806 73.2106 29.1806C73.5559 29.1806 73.8359 29.2926 74.0413 29.5119C74.2513 29.7313 74.3539 30.0206 74.3539 30.3799V32.5593H74.7553V30.3333C74.7553 30.0486 74.6946 29.7919 74.5733 29.5586C74.4519 29.3253 74.2839 29.1433 74.0646 29.0079C73.8453 28.8726 73.5933 28.8073 73.3039 28.8073C73.0146 28.8073 72.7626 28.8726 72.5339 28.9986C72.3099 29.1246 72.1326 29.2926 72.0019 29.5073V28.8913H71.6006V32.5639H72.0019V30.3846H72.0066Z" fill="#F4F8F7"/>
<path d="M78.5027 33.4412C78.2274 33.6932 77.8587 33.8192 77.3967 33.8192C77.0747 33.8192 76.7947 33.7586 76.552 33.6419C76.3094 33.5252 76.118 33.3666 75.978 33.1659L75.7167 33.4179C75.894 33.6699 76.1274 33.8659 76.4167 33.9966C76.7014 34.1319 77.028 34.1972 77.392 34.1972C77.7747 34.1972 78.1154 34.1226 78.4047 33.9779C78.694 33.8286 78.918 33.6232 79.0814 33.3572C79.24 33.0912 79.324 32.7786 79.324 32.4192V28.8912H78.9227V29.6472C78.8854 29.5726 78.848 29.4932 78.7967 29.4279C78.6474 29.2319 78.4607 29.0826 78.232 28.9752C78.0034 28.8679 77.7467 28.8119 77.462 28.8119C77.1214 28.8119 76.8087 28.8959 76.5334 29.0546C76.258 29.2179 76.0387 29.4419 75.8847 29.7219C75.7307 30.0019 75.6514 30.3192 75.6514 30.6739C75.6514 31.0286 75.7307 31.3506 75.8894 31.6352C76.048 31.9152 76.2627 32.1392 76.5427 32.2979C76.818 32.4566 77.1307 32.5406 77.476 32.5406C77.756 32.5406 78.008 32.4892 78.232 32.3819C78.456 32.2746 78.6427 32.1252 78.792 31.9292C78.8434 31.8592 78.8807 31.7846 78.9227 31.7052V32.4239C78.9227 32.8486 78.7874 33.1892 78.512 33.4412H78.5027ZM78.7594 31.4626C78.6427 31.6866 78.4747 31.8592 78.2647 31.9852C78.0547 32.1066 77.8074 32.1719 77.532 32.1719C77.2567 32.1719 76.9954 32.1066 76.7714 31.9806C76.5474 31.8499 76.3747 31.6726 76.2487 31.4486C76.1227 31.2246 76.0574 30.9632 76.0574 30.6739C76.0574 30.3846 76.1227 30.1279 76.2487 29.9086C76.3747 29.6892 76.5474 29.5119 76.7714 29.3859C76.9907 29.2599 77.2427 29.1946 77.5274 29.1946C77.812 29.1946 78.0547 29.2599 78.2647 29.3859C78.4794 29.5119 78.6427 29.6846 78.764 29.9086C78.8807 30.1279 78.9414 30.3892 78.9414 30.6832C78.9414 30.9772 78.8807 31.2432 78.764 31.4672L78.7594 31.4626Z" fill="#F4F8F7"/>
<path d="M81.1953 32.3914C81.4846 32.5594 81.816 32.6434 82.1846 32.6434C82.4786 32.6434 82.754 32.5874 83.006 32.4754C83.258 32.3634 83.4726 32.2048 83.6453 32.0041L83.3746 31.7428C83.2393 31.9154 83.0666 32.0461 82.866 32.1348C82.6653 32.2234 82.446 32.2654 82.208 32.2654C81.8953 32.2654 81.6246 32.2001 81.396 32.0741C81.1626 31.9434 80.9853 31.7661 80.8546 31.5281C80.752 31.3414 80.7006 31.1174 80.682 30.8748H83.8133C83.8226 30.8048 83.832 30.7488 83.8366 30.6974C83.8413 30.6461 83.846 30.6088 83.846 30.5761C83.846 30.2308 83.7713 29.9228 83.6266 29.6614C83.482 29.4001 83.2813 29.1901 83.0246 29.0408C82.768 28.8914 82.474 28.8168 82.1426 28.8168C81.788 28.8168 81.4706 28.9008 81.1813 29.0688C80.8966 29.2368 80.668 29.4654 80.5046 29.7501C80.3413 30.0348 80.262 30.3614 80.262 30.7254C80.262 31.0894 80.346 31.4161 80.514 31.7054C80.682 31.9948 80.9106 32.2234 81.2 32.3914H81.1953ZM80.8453 29.9134C80.9666 29.6894 81.1393 29.5074 81.3633 29.3814C81.5826 29.2508 81.8393 29.1901 82.1286 29.1901C82.418 29.1901 82.6466 29.2508 82.8473 29.3721C83.048 29.4934 83.202 29.6614 83.3046 29.8808C83.3933 30.0721 83.4353 30.2914 83.44 30.5341H80.6773C80.696 30.3054 80.7473 30.1001 80.8453 29.9181V29.9134Z" fill="#F4F8F7"/>
<path d="M88.2 28.8961H87.7987V29.6521C87.7613 29.5774 87.724 29.4981 87.6727 29.4328C87.5233 29.2368 87.3367 29.0874 87.108 28.9801C86.8793 28.8728 86.6227 28.8168 86.338 28.8168C85.9973 28.8168 85.6847 28.9008 85.4093 29.0594C85.134 29.2228 84.9147 29.4468 84.7607 29.7268C84.6067 30.0068 84.5273 30.3241 84.5273 30.6788C84.5273 31.0334 84.6067 31.3554 84.7653 31.6401C84.924 31.9201 85.1387 32.1441 85.4187 32.3028C85.694 32.4614 86.0067 32.5454 86.3567 32.5454C86.6367 32.5454 86.8887 32.4941 87.1127 32.3868C87.3367 32.2794 87.5233 32.1301 87.6727 31.9341C87.724 31.8641 87.7613 31.7894 87.8033 31.7101V32.4288C87.8033 32.8534 87.668 33.1941 87.3927 33.4461C87.1173 33.6981 86.7487 33.8241 86.2867 33.8241C85.9647 33.8241 85.6847 33.7634 85.442 33.6468C85.1993 33.5301 85.008 33.3714 84.868 33.1708L84.6067 33.4228C84.784 33.6748 85.0173 33.8708 85.3067 34.0014C85.5913 34.1368 85.918 34.2021 86.282 34.2021C86.6647 34.2021 87.0053 34.1274 87.2947 33.9828C87.584 33.8334 87.808 33.6281 87.9713 33.3621C88.13 33.0961 88.214 32.7834 88.214 32.4241V28.8961H88.2ZM87.6447 31.4674C87.528 31.6914 87.36 31.8641 87.15 31.9901C86.94 32.1114 86.6927 32.1768 86.4173 32.1768C86.142 32.1768 85.8807 32.1114 85.6567 31.9854C85.4327 31.8548 85.26 31.6774 85.134 31.4534C85.008 31.2294 84.9427 30.9681 84.9427 30.6788C84.9427 30.3894 85.008 30.1328 85.134 29.9134C85.26 29.6941 85.4327 29.5168 85.6567 29.3908C85.876 29.2648 86.1327 29.1994 86.4127 29.1994C86.6927 29.1994 86.94 29.2648 87.15 29.3908C87.3647 29.5168 87.528 29.6894 87.6493 29.9134C87.766 30.1328 87.8267 30.3941 87.8267 30.6881C87.8267 30.9821 87.766 31.2481 87.6493 31.4721L87.6447 31.4674Z" fill="#F4F8F7"/>
<path d="M92.1296 30.3846V32.5639H92.5309V30.3379C92.5309 30.0532 92.4702 29.7966 92.3489 29.5632C92.2276 29.3299 92.0596 29.1479 91.8402 29.0126C91.6209 28.8772 91.3689 28.8119 91.0796 28.8119C90.7902 28.8119 90.5382 28.8772 90.3096 29.0032C90.0856 29.1292 89.9082 29.2972 89.7776 29.5119V28.8959H89.3762V32.5686H89.7776V30.3892C89.7776 30.1512 89.8289 29.9459 89.9316 29.7639C90.0342 29.5866 90.1742 29.4419 90.3562 29.3392C90.5382 29.2366 90.7482 29.1852 90.9816 29.1852C91.3269 29.1852 91.6069 29.2972 91.8122 29.5166C92.0222 29.7359 92.1249 30.0252 92.1249 30.3846H92.1296Z" fill="#F4F8F7"/>
<path d="M96.7962 32.0041L96.5255 31.7428C96.3902 31.9154 96.2175 32.0461 96.0168 32.1348C95.8162 32.2234 95.5968 32.2654 95.3588 32.2654C95.0462 32.2654 94.7755 32.2001 94.5468 32.0741C94.3135 31.9434 94.1362 31.7661 94.0055 31.5281C93.9028 31.3414 93.8515 31.1174 93.8328 30.8748H96.9642C96.9735 30.8048 96.9828 30.7488 96.9875 30.6974C96.9922 30.6461 96.9968 30.6088 96.9968 30.5761C96.9968 30.2308 96.9222 29.9228 96.7775 29.6614C96.6328 29.4001 96.4322 29.1901 96.1755 29.0408C95.9188 28.8914 95.6248 28.8168 95.2935 28.8168C94.9388 28.8168 94.6215 28.9008 94.3322 29.0688C94.0475 29.2368 93.8188 29.4654 93.6555 29.7501C93.4922 30.0348 93.4128 30.3614 93.4128 30.7254C93.4128 31.0894 93.4968 31.4161 93.6648 31.7054C93.8328 31.9948 94.0615 32.2234 94.3508 32.3914C94.6402 32.5594 94.9715 32.6434 95.3402 32.6434C95.6342 32.6434 95.9095 32.5874 96.1615 32.4754C96.4135 32.3634 96.6282 32.2048 96.8008 32.0041H96.7962ZM93.9962 29.9134C94.1175 29.6894 94.2902 29.5074 94.5142 29.3814C94.7335 29.2508 94.9902 29.1901 95.2795 29.1901C95.5688 29.1901 95.7975 29.2508 95.9982 29.3721C96.1988 29.4934 96.3528 29.6614 96.4555 29.8808C96.5442 30.0721 96.5862 30.2914 96.5908 30.5341H93.8282C93.8468 30.3054 93.8982 30.1001 93.9962 29.9181V29.9134Z" fill="#F4F8F7"/>
<path d="M99.4047 28.8168C99.022 28.8168 98.7094 28.9474 98.4714 29.2088C98.4107 29.2741 98.3594 29.3488 98.3127 29.4281V28.8961H97.9114V32.5688H98.3127V30.3801C98.3127 29.9974 98.406 29.7034 98.5974 29.4981C98.7887 29.2974 99.0314 29.1948 99.33 29.1948C99.4887 29.1948 99.624 29.2181 99.7407 29.2648C99.8574 29.3114 99.9647 29.3908 100.063 29.5028L100.333 29.2181C100.203 29.0781 100.058 28.9754 99.904 28.9101C99.75 28.8448 99.582 28.8168 99.4047 28.8168Z" fill="#F4F8F7"/>
<path d="M101.393 28.896H100.991V32.5687H101.393V28.896Z" fill="#F4F8F7"/>
<path d="M105.64 29.6472C105.602 29.5726 105.565 29.4932 105.518 29.4279C105.374 29.2319 105.187 29.0826 104.968 28.9752C104.744 28.8679 104.492 28.8119 104.207 28.8119C103.862 28.8119 103.544 28.8959 103.269 29.0686C102.989 29.2412 102.77 29.4699 102.606 29.7592C102.443 30.0486 102.364 30.3706 102.364 30.7299C102.364 31.0892 102.443 31.4206 102.606 31.7052C102.77 31.9899 102.989 32.2186 103.269 32.3866C103.549 32.5546 103.866 32.6386 104.226 32.6386C104.501 32.6386 104.748 32.5826 104.968 32.4752C105.187 32.3679 105.374 32.2139 105.518 32.0179C105.57 31.9479 105.607 31.8639 105.649 31.7846V32.5592H106.05V28.8866H105.649V29.6426L105.64 29.6472ZM105.28 31.8406C105.028 32.1206 104.697 32.2606 104.272 32.2606C103.983 32.2606 103.726 32.1952 103.498 32.0646C103.269 31.9339 103.092 31.7519 102.966 31.5186C102.835 31.2852 102.774 31.0192 102.774 30.7206C102.774 30.4219 102.84 30.1606 102.966 29.9319C103.096 29.6986 103.269 29.5166 103.493 29.3859C103.717 29.2552 103.974 29.1899 104.263 29.1899C104.552 29.1899 104.786 29.2552 104.991 29.3812C105.201 29.5119 105.36 29.6892 105.476 29.9226C105.593 30.1559 105.649 30.4219 105.649 30.7299C105.649 31.1872 105.523 31.5559 105.276 31.8406H105.28Z" fill="#F4F8F7"/>
<path d="M70.4153 38.1267H70V41.9207H70.4153V38.1267Z" fill="#F4F8F7"/>
<path d="M74.2094 38.2526C73.9854 38.1126 73.7194 38.0426 73.4207 38.0426C73.1221 38.0426 72.8607 38.1079 72.6227 38.2386C72.3894 38.3646 72.2074 38.5419 72.0721 38.7613V38.1219H71.6567V41.9159H72.0721V39.6619C72.0721 39.4193 72.1234 39.1999 72.2307 39.0179C72.3381 38.8313 72.4827 38.6866 72.6741 38.5793C72.8607 38.4719 73.0801 38.4206 73.3227 38.4206C73.6821 38.4206 73.9667 38.5326 74.1814 38.7613C74.3961 38.9899 74.5034 39.2886 74.5034 39.6573V41.9113H74.9187V39.6106C74.9187 39.3166 74.8581 39.0506 74.7321 38.8126C74.6061 38.5746 74.4334 38.3833 74.2047 38.2433L74.2094 38.2526Z" fill="#F4F8F7"/>
<path d="M79.2212 38.9061C79.1792 38.8268 79.1373 38.7474 79.0813 38.6728C78.9179 38.4674 78.7173 38.3134 78.4793 38.2014C78.2413 38.0941 77.9846 38.0381 77.6999 38.0381C77.3453 38.0381 77.0279 38.1268 76.7433 38.2994C76.4586 38.4721 76.2393 38.7101 76.0759 39.0088C75.9126 39.3074 75.8333 39.6434 75.8333 40.0214C75.8333 40.3994 75.9126 40.7354 76.0759 41.0294C76.2393 41.3281 76.4633 41.5614 76.7433 41.7341C77.0279 41.9068 77.3453 41.9954 77.6999 41.9954C77.9893 41.9954 78.2506 41.9394 78.4886 41.8228C78.7266 41.7061 78.9226 41.5474 79.0813 41.3468C79.1373 41.2768 79.1792 41.1928 79.2212 41.1134V41.9161H79.6366V36.1854H79.2212V38.9014V38.9061ZM79.0532 40.8474C78.9319 41.0854 78.7593 41.2721 78.5399 41.4074C78.3206 41.5428 78.0639 41.6128 77.7746 41.6128C77.4853 41.6128 77.2192 41.5428 76.9906 41.4074C76.7619 41.2721 76.5846 41.0854 76.4539 40.8428C76.3233 40.6048 76.2579 40.3294 76.2579 40.0168C76.2579 39.7041 76.3233 39.4334 76.4539 39.1954C76.5846 38.9574 76.7619 38.7708 76.9906 38.6354C77.2146 38.5001 77.4759 38.4301 77.7606 38.4301C78.0453 38.4301 78.3113 38.5001 78.5306 38.6354C78.7499 38.7708 78.9226 38.9574 79.0486 39.1954C79.1746 39.4334 79.2352 39.7088 79.2352 40.0214C79.2352 40.3341 79.1746 40.6048 79.0532 40.8428V40.8474Z" fill="#F4F8F7"/>
<path d="M83.5007 40.3199C83.5007 40.7073 83.3981 41.0199 83.1881 41.2533C82.9781 41.4913 82.6981 41.6079 82.3434 41.6079C82.1147 41.6079 81.9141 41.5519 81.7414 41.4446C81.5687 41.3373 81.4334 41.1833 81.3354 40.9919C81.2421 40.8006 81.1907 40.5766 81.1907 40.3199V38.1219H80.7754V40.3339C80.7754 40.6606 80.8407 40.9499 80.9761 41.1973C81.1114 41.4493 81.2934 41.6406 81.5361 41.7806C81.7741 41.9206 82.0494 41.9906 82.3527 41.9906C82.6561 41.9906 82.9267 41.9206 83.1647 41.7806C83.4027 41.6406 83.5847 41.4493 83.7201 41.1973C83.8554 40.9453 83.9207 40.6606 83.9207 40.3339V38.1219H83.5054V40.3199H83.5007Z" fill="#F4F8F7"/>
<path d="M86.1748 38.4206C86.4034 38.4206 86.6088 38.4626 86.7908 38.5466C86.9728 38.6306 87.1221 38.7473 87.2341 38.9013L87.5048 38.6259C87.3694 38.4346 87.1874 38.2899 86.9634 38.1919C86.7394 38.0939 86.4828 38.0426 86.1981 38.0426C85.9414 38.0426 85.7174 38.0846 85.5308 38.1686C85.3394 38.2526 85.1948 38.3693 85.0921 38.5233C84.9894 38.6773 84.9428 38.8546 84.9428 39.0553C84.9428 39.2839 84.9941 39.4659 85.0968 39.6059C85.1994 39.7459 85.3348 39.8533 85.5028 39.9279C85.6708 40.0026 85.8434 40.0679 86.0254 40.1193C86.2074 40.1706 86.3801 40.2266 86.5481 40.2873C86.7161 40.3479 86.8468 40.4319 86.9541 40.5346C87.0568 40.6419 87.1081 40.7866 87.1081 40.9733C87.1081 41.1786 87.0288 41.3419 86.8654 41.4539C86.7021 41.5659 86.4781 41.6266 86.1981 41.6266C85.9554 41.6266 85.7268 41.5799 85.5261 41.4819C85.3208 41.3886 85.1434 41.2393 84.9894 41.0386L84.7141 41.3139C84.8261 41.4493 84.9568 41.5706 85.1061 41.6733C85.2508 41.7759 85.4188 41.8553 85.6054 41.9159C85.7921 41.9719 85.9881 41.9999 86.1934 41.9999C86.5948 41.9999 86.9168 41.9019 87.1548 41.7106C87.3928 41.5193 87.5141 41.2579 87.5141 40.9313C87.5141 40.6839 87.4628 40.4926 87.3601 40.3526C87.2574 40.2126 87.1221 40.1006 86.9541 40.0166C86.7861 39.9373 86.6134 39.8673 86.4314 39.8159C86.2494 39.7646 86.0768 39.7133 85.9088 39.6573C85.7408 39.6013 85.6101 39.5266 85.5028 39.4286C85.4001 39.3306 85.3488 39.1953 85.3488 39.0273C85.3488 38.8593 85.4188 38.7099 85.5634 38.5886C85.7034 38.4719 85.9134 38.4113 86.1841 38.4113L86.1748 38.4206Z" fill="#F4F8F7"/>
<path d="M89.4925 36.5166H89.0725V38.1266H88.0925V38.4906H89.0725V41.9206H89.4925V38.4906H90.4679V38.1266H89.4925V36.5166Z" fill="#F4F8F7"/>
<path d="M92.8525 38.0426C92.4558 38.0426 92.1338 38.1779 91.8912 38.4486C91.8305 38.5186 91.7745 38.5933 91.7278 38.6773V38.1266H91.3125V41.9206H91.7278V39.6573C91.7278 39.2606 91.8258 38.9573 92.0218 38.7473C92.2178 38.5373 92.4698 38.4346 92.7825 38.4346C92.9458 38.4346 93.0858 38.4579 93.2072 38.5093C93.3285 38.5606 93.4405 38.6399 93.5432 38.7566L93.8185 38.4626C93.6832 38.3179 93.5338 38.2106 93.3752 38.1453C93.2165 38.0799 93.0438 38.0473 92.8572 38.0473L92.8525 38.0426Z" fill="#F4F8F7"/>
<path d="M94.9107 38.1267H94.4954V41.9207H94.9107V38.1267Z" fill="#F4F8F7"/>
<path d="M99.3021 38.9059C99.2648 38.8266 99.2274 38.7473 99.1761 38.6819C99.0268 38.4813 98.8354 38.3226 98.6068 38.2106C98.3734 38.0986 98.1121 38.0426 97.8181 38.0426C97.4588 38.0426 97.1368 38.1313 96.8474 38.3086C96.5581 38.4859 96.3294 38.7239 96.1614 39.0226C95.9934 39.3213 95.9094 39.6573 95.9094 40.0259C95.9094 40.3946 95.9934 40.7399 96.1614 41.0339C96.3294 41.3326 96.5581 41.5659 96.8474 41.7386C97.1368 41.9113 97.4634 41.9999 97.8368 41.9999C98.1214 41.9999 98.3734 41.9439 98.6021 41.8319C98.8308 41.7199 99.0174 41.5613 99.1714 41.3606C99.2274 41.2859 99.2648 41.2019 99.3068 41.1226V41.9206H99.7221V38.1266H99.3068V38.9059H99.3021ZM98.9288 41.1739C98.6721 41.4633 98.3221 41.6126 97.8881 41.6126C97.5894 41.6126 97.3234 41.5426 97.0901 41.4073C96.8568 41.2719 96.6701 41.0853 96.5394 40.8426C96.4041 40.6046 96.3388 40.3293 96.3388 40.0166C96.3388 39.7039 96.4041 39.4379 96.5394 39.1999C96.6748 38.9619 96.8568 38.7706 97.0854 38.6353C97.3188 38.4999 97.5801 38.4299 97.8834 38.4299C98.1868 38.4299 98.4248 38.4953 98.6394 38.6306C98.8541 38.7659 99.0221 38.9526 99.1434 39.1906C99.2648 39.4286 99.3254 39.7086 99.3254 40.0213C99.3254 40.4926 99.1948 40.8753 98.9381 41.1693L98.9288 41.1739Z" fill="#F4F8F7"/>
<path d="M101.356 36.1901H100.94V41.9207H101.356V36.1901Z" fill="#F4F8F7"/>
<path d="M105.196 38.2759C104.93 38.1219 104.627 38.0426 104.281 38.0426C103.917 38.0426 103.586 38.1313 103.292 38.3039C102.993 38.4766 102.765 38.7146 102.592 39.0086C102.424 39.3073 102.34 39.6433 102.34 40.0166C102.34 40.3899 102.429 40.7306 102.601 41.0293C102.774 41.3279 103.012 41.5659 103.311 41.7386C103.609 41.9113 103.95 41.9999 104.333 41.9999C104.636 41.9999 104.921 41.9393 105.182 41.8226C105.443 41.7059 105.663 41.5426 105.845 41.3373L105.569 41.0666C105.429 41.2439 105.252 41.3793 105.042 41.4726C104.832 41.5613 104.603 41.6079 104.361 41.6079C104.039 41.6079 103.759 41.5426 103.521 41.4073C103.283 41.2719 103.096 41.0853 102.961 40.8426C102.853 40.6466 102.802 40.4179 102.779 40.1706H106.017C106.027 40.1006 106.036 40.0399 106.041 39.9886C106.045 39.9373 106.05 39.8953 106.05 39.8626C106.05 39.5033 105.975 39.1859 105.826 38.9153C105.677 38.6446 105.467 38.4299 105.201 38.2759H105.196ZM102.947 39.1766C103.073 38.9433 103.255 38.7613 103.483 38.6259C103.712 38.4906 103.978 38.4253 104.277 38.4253C104.575 38.4253 104.813 38.4859 105.019 38.6119C105.224 38.7379 105.383 38.9106 105.49 39.1393C105.583 39.3353 105.625 39.5639 105.63 39.8113H102.779C102.797 39.5779 102.849 39.3586 102.951 39.1766H102.947Z" fill="#F4F8F7"/>
<path fill-rule="evenodd" clip-rule="evenodd" d="M0 0H56V56H0V0ZM23.1093 17.346L32.396 14L42 38.6447L32.6853 42L23.7347 18.9093L16.954 37.3893H23.702V38.7473H16.4407L15.442 41.3887L15.4 41.496L14 42.0047V42L14.0047 41.9953L14.3127 41.1553L14.8307 39.7507L23.1093 17.346Z" fill="#F4F8F7"/>
</svg>
