<svg width="25" height="24" viewBox="0 0 25 24" fill="none" xmlns="http://www.w3.org/2000/svg">
<g opacity="0.64" clip-path="url(#clip0_176_228)">
<path fill-rule="evenodd" clip-rule="evenodd" d="M3 8.99984C2.99963 8.63706 3.13074 8.28644 3.36905 8.01292C3.60736 7.7394 3.93673 7.56152 4.29614 7.51221C4.65555 7.46291 5.02065 7.54553 5.32381 7.74477C5.62698 7.94401 5.84767 8.24636 5.945 8.59584C7.892 15.0978 17.103 15.0988 19.054 8.60084C19.1088 8.41079 19.2007 8.23347 19.3243 8.07907C19.4479 7.92467 19.6009 7.79625 19.7743 7.70119C19.9478 7.60613 20.1383 7.54631 20.335 7.52518C20.5317 7.50405 20.7305 7.52203 20.9202 7.57807C21.1099 7.63411 21.2867 7.72712 21.4403 7.85173C21.5939 7.97634 21.7213 8.13011 21.8152 8.30417C21.9092 8.47823 21.9678 8.66915 21.9876 8.86594C22.0075 9.06273 21.9883 9.26151 21.931 9.45084C21.5892 10.6184 21.0394 11.7147 20.308 12.6868L21.268 13.6468C21.4112 13.7853 21.5254 13.9508 21.6039 14.1339C21.6824 14.3169 21.7237 14.5138 21.7254 14.7129C21.727 14.9121 21.689 15.1096 21.6134 15.2939C21.5379 15.4782 21.4265 15.6457 21.2856 15.7864C21.1447 15.9272 20.9771 16.0385 20.7928 16.1138C20.6084 16.1892 20.4108 16.227 20.2117 16.2252C20.0125 16.2234 19.8157 16.1819 19.6327 16.1032C19.4498 16.0245 19.2843 15.9102 19.146 15.7668L18.136 14.7568C17.611 15.1163 17.0516 15.4228 16.466 15.6718L16.709 16.5778C16.8012 16.9584 16.7409 17.3599 16.541 17.6966C16.3411 18.0334 16.0175 18.2786 15.6393 18.3799C15.261 18.4812 14.8582 18.4306 14.5167 18.2389C14.1753 18.0472 13.9224 17.7295 13.812 17.3538L13.561 16.4188C12.856 16.4918 12.144 16.4918 11.439 16.4188L11.189 17.3538C11.0861 17.7381 10.8347 18.0658 10.4902 18.2648C10.1457 18.4638 9.7363 18.5177 9.352 18.4148C8.9677 18.3119 8.64002 18.0606 8.44105 17.7161C8.24207 17.3716 8.1881 16.9621 8.291 16.5778L8.533 15.6708C7.9478 15.4221 7.38873 15.116 6.864 14.7568L5.854 15.7668C5.7157 15.9102 5.55023 16.0245 5.36727 16.1032C5.1843 16.1819 4.98749 16.2234 4.78832 16.2252C4.58915 16.227 4.39162 16.1892 4.20724 16.1138C4.02286 16.0385 3.85533 15.9272 3.71442 15.7864C3.57352 15.6457 3.46206 15.4782 3.38655 15.2939C3.31104 15.1096 3.273 14.9121 3.27463 14.7129C3.27627 14.5138 3.31756 14.3169 3.39608 14.1339C3.47461 13.9508 3.5888 13.7853 3.732 13.6468L4.692 12.6868C3.96226 11.7163 3.41348 10.6221 3.072 9.45684C3.02451 9.30914 3.00022 9.15498 3 8.99984Z" fill="#003233"/>
</g>
<defs>
<clipPath id="clip0_176_228">
<rect width="24" height="24" fill="white" transform="translate(0.5 -0.00012207)"/>
</clipPath>
</defs>
</svg>
