<svg width="20" height="20" viewBox="0 0 20 20" fill="none" xmlns="http://www.w3.org/2000/svg">
<path fill-rule="evenodd" clip-rule="evenodd" d="M15.5558 1.28919C15.4745 1.215 15.3793 1.15766 15.2757 1.12049C15.172 1.08331 15.0621 1.06704 14.9521 1.0726C14.8422 1.07816 14.7344 1.10545 14.6351 1.15289C14.5358 1.20034 14.4468 1.26699 14.3734 1.34901C14.3 1.43103 14.2435 1.52678 14.2073 1.63074C14.1711 1.7347 14.1558 1.8448 14.1624 1.95469C14.169 2.06458 14.1973 2.17207 14.2456 2.27096C14.294 2.36986 14.3615 2.45819 14.4442 2.53085C15.45 3.43042 16.1591 4.61403 16.4779 5.92523C16.7966 7.23643 16.71 8.6135 16.2294 9.87441C15.7488 11.1353 14.8969 12.2207 13.7862 12.9871C12.6756 13.7535 11.3586 14.1648 10.0092 14.1667H9.99084C8.89216 14.1659 7.81075 13.8933 6.84297 13.3732C5.87519 12.8531 5.05111 12.1017 4.44417 11.1859C4.32184 11.0018 4.13139 10.8738 3.9147 10.8301C3.69802 10.7864 3.47286 10.8306 3.28876 10.9529C3.10465 11.0753 2.97668 11.2657 2.933 11.4824C2.88932 11.6991 2.93351 11.9243 3.05584 12.1084C3.73806 13.1365 4.64017 14.0003 5.69697 14.6373C6.75378 15.2743 7.93889 15.6686 9.16667 15.7917V16.6667H6.66667C6.44566 16.6667 6.2337 16.7545 6.07742 16.9108C5.92114 17.067 5.83334 17.279 5.83334 17.5C5.83334 17.721 5.92114 17.933 6.07742 18.0893C6.2337 18.2456 6.44566 18.3334 6.66667 18.3334H13.3333C13.5544 18.3334 13.7663 18.2456 13.9226 18.0893C14.0789 17.933 14.1667 17.721 14.1667 17.5C14.1667 17.279 14.0789 17.067 13.9226 16.9108C13.7663 16.7545 13.5544 16.6667 13.3333 16.6667H10.8333V15.7917C15.0442 15.3742 18.3333 11.8209 18.3333 7.50002C18.3345 6.32745 18.0877 5.1679 17.609 4.09749C17.1303 3.02709 16.4306 2.07004 15.5558 1.28919ZM10 1.66669C8.45291 1.66669 6.96918 2.28127 5.87522 3.37523C4.78125 4.46919 4.16667 5.95293 4.16667 7.50002C4.16667 9.04712 4.78125 10.5308 5.87522 11.6248C6.96918 12.7188 8.45291 13.3334 10 13.3334C11.5471 13.3334 13.0308 12.7188 14.1248 11.6248C15.2188 10.5308 15.8333 9.04712 15.8333 7.50002C15.8333 5.95293 15.2188 4.46919 14.1248 3.37523C13.0308 2.28127 11.5471 1.66669 10 1.66669Z" fill="#038667"/>
</svg>
