<svg width="40" height="40" viewBox="0 0 40 40" fill="none" xmlns="http://www.w3.org/2000/svg">
<path d="M3.375 6.54167C3.375 7.38152 3.70863 8.18697 4.3025 8.78084C4.89636 9.3747 5.70181 9.70833 6.54167 9.70833C7.38152 9.70833 8.18697 9.3747 8.78084 8.78084C9.3747 8.18697 9.70833 7.38152 9.70833 6.54167C9.70833 5.70181 9.3747 4.89636 8.78084 4.3025C8.18697 3.70863 7.38152 3.375 6.54167 3.375C5.70181 3.375 4.89636 3.70863 4.3025 4.3025C3.70863 4.89636 3.375 5.70181 3.375 6.54167Z" fill="#E2ECF1"/>
<path d="M3.375 36.6249V14.4583H9.70833V36.6249H3.375Z" fill="#E2ECF1"/>
<path d="M13.6667 14.4583V36.6249H20.0001V25.6873C20.0001 23.9583 21.5834 20.7916 26.1672 20.7916C28.7686 20.7916 30.2917 22.1295 30.2917 24.7499V36.6249H36.6251V24.7499C36.6251 22.6773 36.1311 20.0997 34.4179 17.978C32.6066 15.7344 29.8057 14.4583 26.1687 14.4583C23.7732 14.4583 21.68 15.432 20.0001 16.6211V14.4583H13.6667Z" fill="#E2ECF1"/>
</svg>
