<svg width="455" height="240" viewBox="0 0 455 240" fill="none" xmlns="http://www.w3.org/2000/svg">
<path d="M324.959 88.94L328.28 97.24H333.679L318.699 60.52H315.099L300.02 97.24H305.359L308.679 88.94H324.959ZM316.839 68.56L323.24 84.6H310.42L316.839 68.56Z" fill="white"/>
<path d="M344.14 60.54H339.16V97.26H342.56H344.14H362.24V92.7H344.14V60.54Z" fill="white"/>
<path d="M368.7 92.26C370.4 94 372.36 95.36 374.62 96.34C376.88 97.32 379.32 97.8 381.92 97.8C384.52 97.8 386.9 97.32 389.14 96.34C391.38 95.38 393.34 94.02 395.02 92.3C396.7 90.58 398 88.56 398.96 86.26C399.92 83.96 400.38 81.52 400.38 78.9C400.38 76.28 399.9 73.78 398.96 71.5C398 69.2 396.68 67.2 395 65.46C393.3 63.74 391.34 62.4 389.1 61.44C386.86 60.48 384.44 60.02 381.82 60.02C379.2 60.02 376.78 60.5 374.54 61.44C372.3 62.4 370.34 63.74 368.66 65.46C366.98 67.18 365.68 69.2 364.72 71.46C363.76 73.74 363.3 76.2 363.3 78.84C363.3 81.48 363.78 83.9 364.72 86.2C365.68 88.5 367 90.52 368.68 92.26H368.7ZM370.2 71.54C371.34 69.42 372.92 67.76 374.9 66.56C376.9 65.36 379.2 64.76 381.8 64.76C383.78 64.76 385.58 65.1 387.2 65.8C388.82 66.48 390.24 67.46 391.44 68.74C392.64 70.02 393.56 71.5 394.22 73.22C394.88 74.94 395.2 76.82 395.2 78.86C395.2 81.62 394.62 84.06 393.48 86.2C392.34 88.34 390.76 90 388.74 91.22C386.72 92.44 384.42 93.04 381.8 93.04C379.86 93.04 378.06 92.68 376.42 91.98C374.78 91.28 373.36 90.3 372.18 89.04C371 87.78 370.08 86.28 369.42 84.54C368.76 82.8 368.44 80.9 368.44 78.86C368.44 76.1 369.02 73.68 370.16 71.56L370.2 71.54Z" fill="white"/>
<path d="M412.2 60.54H407.22V97.26H412.2V60.54Z" fill="white"/>
<path d="M442.78 87.42C442.78 85.48 442.46 83.86 441.8 82.58C441.14 81.3 440.3 80.24 439.24 79.44C438.18 78.62 437.02 77.96 435.74 77.42C434.48 76.9 433.2 76.4 431.9 75.96C430.62 75.52 429.44 75.04 428.38 74.5C427.32 73.98 426.459 73.32 425.819 72.56C425.159 71.8 424.839 70.8 424.839 69.58C424.839 68.02 425.419 66.82 426.579 65.96C427.739 65.1 429.32 64.66 431.28 64.66C432.9 64.66 434.339 64.98 435.599 65.62C436.859 66.26 438.02 67.2 439.12 68.48L442.5 65.1C441.3 63.58 439.739 62.36 437.839 61.42C435.939 60.48 433.78 60.02 431.38 60.02C429.2 60.02 427.219 60.42 425.479 61.22C423.739 62.02 422.359 63.14 421.359 64.6C420.359 66.06 419.859 67.84 419.859 69.92C419.859 71.82 420.179 73.38 420.819 74.6C421.459 75.82 422.3 76.82 423.38 77.58C424.46 78.36 425.62 79 426.9 79.52C428.18 80.04 429.439 80.5 430.719 80.92C431.999 81.34 433.159 81.82 434.219 82.38C435.279 82.92 436.14 83.62 436.78 84.48C437.44 85.32 437.76 86.44 437.76 87.82C437.76 89.48 437.1 90.78 435.78 91.74C434.46 92.7 432.7 93.16 430.52 93.16C428.34 93.16 426.42 92.74 424.92 91.92C423.4 91.1 422.06 89.86 420.9 88.24L417.52 91.62C419.1 93.64 420.919 95.16 422.959 96.22C424.999 97.28 427.459 97.8 430.319 97.8C434.159 97.8 437.199 96.88 439.439 95.04C441.679 93.2 442.8 90.66 442.8 87.42H442.78Z" fill="white"/>
<path d="M454.48 60.54H449.5V97.26H454.48V60.54Z" fill="white"/>
<path d="M301.72 123.82H300V139.56H301.72V123.82Z" fill="white"/>
<path d="M308.6 130.22C308.6 129.2 308.82 128.32 309.26 127.54C309.7 126.78 310.3 126.16 311.08 125.72C311.86 125.28 312.76 125.06 313.76 125.06C315.24 125.06 316.44 125.54 317.32 126.48C318.22 127.42 318.66 128.66 318.66 130.2V139.54H320.38V130C320.38 128.78 320.12 127.68 319.6 126.68C319.08 125.68 318.36 124.9 317.42 124.32C316.48 123.74 315.4 123.46 314.16 123.46C312.92 123.46 311.84 123.74 310.86 124.28C309.9 124.82 309.14 125.54 308.58 126.46V123.82H306.86V139.56H308.58V130.22H308.6Z" fill="white"/>
<path d="M336.44 143.32C335.26 144.4 333.68 144.94 331.7 144.94C330.32 144.94 329.12 144.68 328.08 144.18C327.04 143.68 326.22 143 325.62 142.14L324.5 143.22C325.26 144.3 326.26 145.14 327.5 145.7C328.72 146.28 330.12 146.56 331.68 146.56C333.32 146.56 334.78 146.24 336.02 145.62C337.26 144.98 338.22 144.1 338.92 142.96C339.6 141.82 339.96 140.48 339.96 138.96V123.84H338.24V127.08C338.08 126.76 337.92 126.42 337.7 126.14C337.06 125.3 336.26 124.66 335.28 124.2C334.3 123.74 333.2 123.5 331.98 123.5C330.52 123.5 329.18 123.86 328 124.54C326.82 125.24 325.88 126.2 325.22 127.4C324.56 128.6 324.22 129.96 324.22 131.48C324.22 133 324.56 134.38 325.24 135.6C325.92 136.8 326.84 137.76 328.04 138.44C329.22 139.12 330.56 139.48 332.06 139.48C333.26 139.48 334.34 139.26 335.3 138.8C336.26 138.34 337.06 137.7 337.7 136.86C337.92 136.56 338.08 136.24 338.26 135.9V138.98C338.26 140.8 337.68 142.26 336.5 143.34L336.44 143.32ZM337.54 134.84C337.04 135.8 336.32 136.54 335.42 137.08C334.52 137.6 333.46 137.88 332.28 137.88C331.1 137.88 329.98 137.6 329.02 137.06C328.06 136.5 327.32 135.74 326.78 134.78C326.24 133.82 325.96 132.7 325.96 131.46C325.96 130.22 326.24 129.12 326.78 128.18C327.32 127.24 328.06 126.48 329.02 125.94C329.96 125.4 331.04 125.12 332.26 125.12C333.48 125.12 334.52 125.4 335.42 125.94C336.34 126.48 337.04 127.22 337.56 128.18C338.06 129.12 338.32 130.24 338.32 131.5C338.32 132.76 338.06 133.9 337.56 134.86L337.54 134.84Z" fill="white"/>
<path d="M347.98 138.82C349.22 139.54 350.64 139.9 352.22 139.9C353.48 139.9 354.66 139.66 355.74 139.18C356.82 138.7 357.74 138.02 358.48 137.16L357.32 136.04C356.74 136.78 356.001 137.34 355.141 137.72C354.281 138.1 353.34 138.28 352.32 138.28C350.98 138.28 349.82 138 348.84 137.46C347.84 136.9 347.081 136.14 346.521 135.12C346.081 134.32 345.861 133.36 345.781 132.32H359.2C359.24 132.02 359.281 131.78 359.301 131.56C359.321 131.34 359.34 131.18 359.34 131.04C359.34 129.56 359.021 128.24 358.401 127.12C357.781 126 356.92 125.1 355.82 124.46C354.72 123.82 353.461 123.5 352.041 123.5C350.521 123.5 349.161 123.86 347.921 124.58C346.701 125.3 345.721 126.28 345.021 127.5C344.321 128.72 343.98 130.12 343.98 131.68C343.98 133.24 344.34 134.64 345.06 135.88C345.78 137.12 346.76 138.1 348 138.82H347.98ZM346.48 128.2C347 127.24 347.74 126.46 348.7 125.92C349.64 125.36 350.74 125.1 351.98 125.1C353.22 125.1 354.2 125.36 355.06 125.88C355.92 126.4 356.561 127.12 357.021 128.06C357.401 128.88 357.58 129.82 357.6 130.86H345.76C345.84 129.88 346.06 129 346.48 128.22V128.2Z" fill="white"/>
<path d="M378 123.82H376.28V127.06C376.12 126.74 375.96 126.4 375.74 126.12C375.1 125.28 374.3 124.64 373.32 124.18C372.34 123.72 371.24 123.48 370.02 123.48C368.56 123.48 367.22 123.84 366.04 124.52C364.86 125.22 363.92 126.18 363.26 127.38C362.6 128.58 362.26 129.94 362.26 131.46C362.26 132.98 362.6 134.36 363.28 135.58C363.96 136.78 364.88 137.74 366.08 138.42C367.26 139.1 368.6 139.46 370.08 139.46C371.28 139.46 372.36 139.24 373.32 138.78C374.28 138.32 375.08 137.68 375.72 136.84C375.94 136.54 376.1 136.22 376.28 135.88V138.96C376.28 140.78 375.7 142.24 374.52 143.32C373.34 144.4 371.76 144.94 369.78 144.94C368.4 144.94 367.2 144.68 366.16 144.18C365.12 143.68 364.3 143 363.7 142.14L362.58 143.22C363.34 144.3 364.34 145.14 365.58 145.7C366.8 146.28 368.2 146.56 369.76 146.56C371.4 146.56 372.86 146.24 374.1 145.62C375.34 144.98 376.3 144.1 377 142.96C377.68 141.82 378.04 140.48 378.04 138.96V123.84L378 123.82ZM375.62 134.84C375.12 135.8 374.4 136.54 373.5 137.08C372.6 137.6 371.54 137.88 370.36 137.88C369.18 137.88 368.06 137.6 367.1 137.06C366.14 136.5 365.4 135.74 364.86 134.78C364.32 133.82 364.04 132.7 364.04 131.46C364.04 130.22 364.32 129.12 364.86 128.18C365.4 127.24 366.14 126.48 367.1 125.94C368.04 125.4 369.12 125.12 370.34 125.12C371.56 125.12 372.6 125.4 373.5 125.94C374.42 126.48 375.12 127.22 375.64 128.18C376.14 129.12 376.4 130.24 376.4 131.5C376.4 132.76 376.14 133.9 375.64 134.86L375.62 134.84Z" fill="white"/>
<path d="M394.86 130.22V139.56H396.58V130.02C396.58 128.8 396.32 127.7 395.8 126.7C395.28 125.7 394.56 124.92 393.62 124.34C392.68 123.76 391.6 123.48 390.36 123.48C389.12 123.48 388.04 123.76 387.06 124.3C386.1 124.84 385.34 125.56 384.78 126.48V123.84H383.06V139.58H384.78V130.24C384.78 129.22 385 128.34 385.44 127.56C385.88 126.8 386.48 126.18 387.26 125.74C388.04 125.3 388.94 125.08 389.96 125.08C391.44 125.08 392.64 125.56 393.52 126.5C394.42 127.44 394.86 128.68 394.86 130.22Z" fill="white"/>
<path d="M414.86 137.16L413.7 136.04C413.12 136.78 412.38 137.34 411.52 137.72C410.66 138.1 409.72 138.28 408.7 138.28C407.36 138.28 406.2 138 405.22 137.46C404.22 136.9 403.46 136.14 402.9 135.12C402.46 134.32 402.24 133.36 402.16 132.32H415.58C415.62 132.02 415.66 131.78 415.68 131.56C415.7 131.34 415.72 131.18 415.72 131.04C415.72 129.56 415.4 128.24 414.78 127.12C414.16 126 413.3 125.1 412.2 124.46C411.1 123.82 409.84 123.5 408.42 123.5C406.9 123.5 405.54 123.86 404.3 124.58C403.08 125.3 402.1 126.28 401.4 127.5C400.7 128.72 400.36 130.12 400.36 131.68C400.36 133.24 400.72 134.64 401.44 135.88C402.16 137.12 403.14 138.1 404.38 138.82C405.62 139.54 407.04 139.9 408.62 139.9C409.88 139.9 411.06 139.66 412.14 139.18C413.22 138.7 414.14 138.02 414.88 137.16H414.86ZM402.86 128.2C403.38 127.24 404.12 126.46 405.08 125.92C406.02 125.36 407.12 125.1 408.36 125.1C409.6 125.1 410.58 125.36 411.44 125.88C412.3 126.4 412.94 127.12 413.4 128.06C413.78 128.88 413.96 129.82 413.98 130.86H402.14C402.22 129.88 402.44 129 402.86 128.22V128.2Z" fill="white"/>
<path d="M426.02 123.48C424.38 123.48 423.04 124.04 422.02 125.16C421.76 125.44 421.54 125.76 421.34 126.1V123.82H419.62V139.56H421.34V130.18C421.34 128.54 421.74 127.28 422.56 126.4C423.38 125.54 424.42 125.1 425.7 125.1C426.38 125.1 426.96 125.2 427.46 125.4C427.96 125.6 428.42 125.94 428.84 126.42L430 125.2C429.44 124.6 428.82 124.16 428.16 123.88C427.5 123.6 426.78 123.48 426.02 123.48Z" fill="white"/>
<path d="M434.54 123.82H432.82V139.56H434.54V123.82Z" fill="white"/>
<path d="M452.74 127.06C452.58 126.74 452.42 126.4 452.22 126.12C451.6 125.28 450.8 124.64 449.86 124.18C448.9 123.72 447.82 123.48 446.6 123.48C445.12 123.48 443.76 123.84 442.58 124.58C441.38 125.32 440.44 126.3 439.74 127.54C439.04 128.78 438.7 130.16 438.7 131.7C438.7 133.24 439.04 134.66 439.74 135.88C440.44 137.1 441.38 138.08 442.58 138.8C443.78 139.52 445.14 139.88 446.68 139.88C447.86 139.88 448.92 139.64 449.86 139.18C450.8 138.72 451.6 138.06 452.22 137.22C452.44 136.92 452.6 136.56 452.78 136.22V139.54H454.5V123.8H452.78V127.04L452.74 127.06ZM451.2 136.46C450.12 137.66 448.7 138.26 446.88 138.26C445.64 138.26 444.54 137.98 443.56 137.42C442.58 136.86 441.82 136.08 441.28 135.08C440.72 134.08 440.46 132.94 440.46 131.66C440.46 130.38 440.74 129.26 441.28 128.28C441.84 127.28 442.58 126.5 443.54 125.94C444.5 125.38 445.6 125.1 446.84 125.1C448.08 125.1 449.08 125.38 449.96 125.92C450.86 126.48 451.54 127.24 452.04 128.24C452.54 129.24 452.78 130.38 452.78 131.7C452.78 133.66 452.24 135.24 451.18 136.46H451.2Z" fill="white"/>
<path d="M301.78 163.38H300V179.64H301.78V163.38Z" fill="white"/>
<path d="M318.04 163.92C317.08 163.32 315.94 163.02 314.66 163.02C313.38 163.02 312.26 163.3 311.24 163.86C310.24 164.4 309.46 165.16 308.88 166.1V163.36H307.1V179.62H308.88V169.96C308.88 168.92 309.1 167.98 309.56 167.2C310.02 166.4 310.64 165.78 311.46 165.32C312.26 164.86 313.2 164.64 314.24 164.64C315.78 164.64 317 165.12 317.92 166.1C318.84 167.08 319.3 168.36 319.3 169.94V179.6H321.08V169.74C321.08 168.48 320.82 167.34 320.28 166.32C319.74 165.3 319 164.48 318.02 163.88L318.04 163.92Z" fill="white"/>
<path d="M339.54 166.74C339.36 166.4 339.18 166.06 338.94 165.74C338.24 164.86 337.38 164.2 336.36 163.72C335.34 163.26 334.24 163.02 333.02 163.02C331.5 163.02 330.14 163.4 328.92 164.14C327.7 164.88 326.76 165.9 326.06 167.18C325.36 168.46 325 169.9 325 171.52C325 173.14 325.34 174.58 326.06 175.84C326.76 177.12 327.72 178.12 328.92 178.86C330.14 179.6 331.5 179.98 333.02 179.98C334.26 179.98 335.38 179.74 336.4 179.24C337.42 178.74 338.26 178.06 338.94 177.2C339.18 176.9 339.36 176.54 339.54 176.2V179.64H341.32V155.08H339.54V166.72V166.74ZM338.82 175.06C338.3 176.08 337.56 176.88 336.62 177.46C335.68 178.04 334.58 178.34 333.34 178.34C332.1 178.34 330.96 178.04 329.98 177.46C329 176.88 328.24 176.08 327.68 175.04C327.12 174.02 326.84 172.84 326.84 171.5C326.84 170.16 327.12 169 327.68 167.98C328.24 166.96 329 166.16 329.96 165.58C330.92 165 332.04 164.7 333.26 164.7C334.48 164.7 335.62 165 336.56 165.58C337.5 166.16 338.24 166.96 338.78 167.98C339.32 169 339.58 170.18 339.58 171.52C339.58 172.86 339.32 174.02 338.8 175.04L338.82 175.06Z" fill="white"/>
<path d="M357.86 172.8C357.86 174.46 357.42 175.8 356.52 176.8C355.62 177.82 354.42 178.32 352.9 178.32C351.92 178.32 351.06 178.08 350.32 177.62C349.58 177.16 349 176.5 348.58 175.68C348.18 174.86 347.96 173.9 347.96 172.8V163.38H346.18V172.86C346.18 174.26 346.46 175.5 347.04 176.56C347.62 177.64 348.4 178.46 349.44 179.06C350.46 179.66 351.64 179.96 352.94 179.96C354.24 179.96 355.4 179.66 356.42 179.06C357.44 178.46 358.22 177.64 358.8 176.56C359.38 175.48 359.66 174.26 359.66 172.86V163.38H357.88V172.8H357.86Z" fill="white"/>
<path d="M369.34 164.64C370.32 164.64 371.2 164.82 371.98 165.18C372.76 165.54 373.4 166.04 373.88 166.7L375.04 165.52C374.46 164.7 373.68 164.08 372.72 163.66C371.76 163.24 370.66 163.02 369.44 163.02C368.34 163.02 367.38 163.2 366.58 163.56C365.76 163.92 365.14 164.42 364.7 165.08C364.26 165.74 364.06 166.5 364.06 167.36C364.06 168.34 364.28 169.12 364.72 169.72C365.16 170.32 365.74 170.78 366.46 171.1C367.18 171.42 367.92 171.7 368.7 171.92C369.48 172.14 370.22 172.38 370.94 172.64C371.66 172.9 372.22 173.26 372.68 173.7C373.12 174.16 373.34 174.78 373.34 175.58C373.34 176.46 373 177.16 372.3 177.64C371.6 178.12 370.64 178.38 369.44 178.38C368.4 178.38 367.44 178.18 366.56 177.76C365.68 177.36 364.92 176.72 364.26 175.86L363.08 177.04C363.56 177.62 364.12 178.14 364.76 178.58C365.38 179.02 366.1 179.36 366.9 179.62C367.7 179.86 368.54 179.98 369.42 179.98C371.14 179.98 372.52 179.56 373.54 178.74C374.56 177.92 375.08 176.8 375.08 175.4C375.08 174.34 374.86 173.52 374.42 172.92C373.98 172.32 373.4 171.84 372.68 171.48C371.96 171.14 371.22 170.84 370.44 170.62C369.66 170.4 368.92 170.18 368.2 169.94C367.48 169.7 366.92 169.38 366.46 168.96C366.02 168.54 365.8 167.96 365.8 167.24C365.8 166.52 366.1 165.88 366.72 165.36C367.32 164.86 368.22 164.6 369.38 164.6L369.34 164.64Z" fill="white"/>
<path d="M383.54 156.5H381.76V163.38H377.56V164.96H381.76V179.66H383.54V164.96H387.74V163.38H383.54V156.5Z" fill="white"/>
<path d="M397.94 163.04C396.24 163.04 394.86 163.62 393.82 164.78C393.56 165.08 393.32 165.4 393.12 165.76V163.4H391.34V179.66H393.12V169.96C393.12 168.26 393.54 166.96 394.38 166.06C395.22 165.16 396.3 164.72 397.64 164.72C398.34 164.72 398.94 164.82 399.46 165.04C399.98 165.26 400.46 165.6 400.9 166.1L402.08 164.84C401.5 164.22 400.86 163.76 400.18 163.48C399.5 163.2 398.76 163.06 397.96 163.06L397.94 163.04Z" fill="white"/>
<path d="M406.76 163.38H404.98V179.64H406.76V163.38Z" fill="white"/>
<path d="M425.58 166.74C425.42 166.4 425.26 166.06 425.04 165.78C424.4 164.92 423.58 164.24 422.6 163.76C421.6 163.28 420.48 163.04 419.22 163.04C417.68 163.04 416.3 163.42 415.06 164.18C413.82 164.94 412.84 165.96 412.12 167.24C411.4 168.52 411.04 169.96 411.04 171.54C411.04 173.12 411.4 174.6 412.12 175.86C412.84 177.14 413.82 178.14 415.06 178.88C416.3 179.62 417.7 180 419.3 180C420.52 180 421.6 179.76 422.58 179.28C423.56 178.8 424.36 178.12 425.02 177.26C425.26 176.94 425.42 176.58 425.6 176.24V179.66H427.38V163.4H425.6V166.74H425.58ZM423.98 176.46C422.88 177.7 421.38 178.34 419.52 178.34C418.24 178.34 417.1 178.04 416.1 177.46C415.1 176.88 414.3 176.08 413.74 175.04C413.16 174.02 412.88 172.84 412.88 171.5C412.88 170.16 413.16 169.02 413.74 168C414.32 166.98 415.1 166.16 416.08 165.58C417.08 165 418.2 164.7 419.5 164.7C420.8 164.7 421.82 164.98 422.74 165.56C423.66 166.14 424.38 166.94 424.9 167.96C425.42 168.98 425.68 170.18 425.68 171.52C425.68 173.54 425.12 175.18 424.02 176.44L423.98 176.46Z" fill="white"/>
<path d="M434.4 155.1H432.62V179.66H434.4V155.1Z" fill="white"/>
<path d="M450.84 164.04C449.7 163.38 448.4 163.04 446.92 163.04C445.36 163.04 443.94 163.42 442.66 164.16C441.38 164.9 440.4 165.92 439.66 167.18C438.94 168.46 438.58 169.9 438.58 171.5C438.58 173.1 438.96 174.56 439.7 175.84C440.44 177.12 441.46 178.14 442.74 178.88C444.02 179.62 445.48 180 447.12 180C448.42 180 449.64 179.74 450.76 179.24C451.88 178.74 452.82 178.04 453.6 177.16L452.42 176C451.82 176.76 451.06 177.34 450.16 177.74C449.26 178.12 448.28 178.32 447.24 178.32C445.86 178.32 444.66 178.04 443.64 177.46C442.62 176.88 441.82 176.08 441.24 175.04C440.78 174.2 440.56 173.22 440.46 172.16H454.34C454.38 171.86 454.42 171.6 454.44 171.38C454.46 171.16 454.48 170.98 454.48 170.84C454.48 169.3 454.16 167.94 453.52 166.78C452.88 165.62 451.98 164.7 450.84 164.04ZM441.2 167.9C441.74 166.9 442.52 166.12 443.5 165.54C444.48 164.96 445.6 164.68 446.9 164.68C448.2 164.68 449.2 164.94 450.08 165.48C450.96 166.02 451.64 166.76 452.1 167.74C452.5 168.58 452.68 169.56 452.7 170.62H440.46C440.54 169.62 440.76 168.68 441.2 167.9Z" fill="white"/>
<path fill-rule="evenodd" clip-rule="evenodd" d="M0 0H240V240H0V0ZM99.04 74.32L138.84 60L180 165.6L140.08 180L101.72 81.04L72.66 160.24H101.58V166.04H70.46L66.1799 177.38L66.02 177.84L60 180L60.02 179.96L61.34 176.38L63.5599 170.36H63.58L99.04 74.32Z" fill="white"/>
</svg>
