<svg width="201" height="37" viewBox="0 0 201 37" fill="none" xmlns="http://www.w3.org/2000/svg">
<g clip-path="url(#clip0_204_511)">
<path d="M56.8696 30.0803C54.5114 28.9246 52.7011 27.2612 51.4452 25.0901C50.1826 22.919 49.5547 20.3471 49.5547 17.3543C49.5547 14.3616 50.2227 11.449 51.5521 9.05075C52.8815 6.64585 54.7586 4.78874 57.1769 3.47272C59.5951 2.15671 62.3808 1.49536 65.5473 1.49536C67.3643 1.49536 69.0811 1.70245 70.7111 2.10995C72.3344 2.52412 73.7774 3.10531 75.0399 3.86686L73.5035 9.1376C72.3611 8.43617 71.0852 7.88838 69.6824 7.48757C68.2795 7.09343 66.8967 6.89302 65.5539 6.89302C63.6233 6.89302 61.9132 7.3072 60.4369 8.14223C58.9605 8.97727 57.8182 10.153 57.0099 11.6561C56.2016 13.1658 55.8007 14.916 55.8007 16.9068C55.8007 19.8394 56.6892 22.1441 58.4595 23.8275C60.2298 25.5109 62.6547 26.3527 65.7343 26.3527C66.9635 26.3527 68.1058 26.2658 69.1613 26.0921V19.3451H65.4671V13.9407H74.9999V30.0869C71.9804 31.2293 68.7471 31.8038 65.2867 31.8038C62.0334 31.8038 59.2277 31.2226 56.8696 30.0669" fill="white"/>
<path d="M80.8848 1.8894H98.681V7.42735H87.1709V13.974H96.7037V19.3383H87.1709V25.6177H98.681V31.1557H80.8848V1.8894Z" fill="white"/>
<path d="M107.051 31.1559C105.514 30.7751 104.185 30.2607 103.076 29.6194L103.604 23.7341C104.92 24.5558 106.309 25.1904 107.759 25.6447C109.209 26.0989 110.551 26.326 111.781 26.326C113.19 26.326 114.332 26.0321 115.208 25.4443C116.089 24.8564 116.524 24.0815 116.524 23.1128C116.524 22.3246 116.23 21.7167 115.642 21.2891C115.054 20.8616 114.132 20.4006 112.876 19.9063L111.821 19.4654C111.674 19.4053 111.513 19.3385 111.34 19.265C111.166 19.1915 110.959 19.1113 110.725 19.0245C109.082 18.3498 107.766 17.7152 106.77 17.1139C105.775 16.5127 104.92 15.671 104.198 14.5888C103.477 13.5066 103.123 12.0971 103.123 10.3735C103.123 7.56115 104.072 5.34998 105.982 3.74004C107.886 2.13009 110.538 1.32178 113.938 1.32178C116.517 1.32178 119.149 1.84952 121.848 2.905L120.879 8.70348C119.797 8.08889 118.628 7.60123 117.385 7.25386C116.143 6.89981 114.96 6.72612 113.845 6.72612C112.469 6.72612 111.4 7.00001 110.638 7.54111C109.877 8.08221 109.496 8.81037 109.496 9.71888C109.496 10.5072 109.763 11.1284 110.284 11.5626C110.812 12.0035 111.66 12.4712 112.836 12.9655L114.64 13.6669C116.337 14.3149 117.746 14.9429 118.862 15.5574C119.977 16.172 120.926 17.0605 121.721 18.2162C122.509 19.3719 122.91 20.8749 122.91 22.7187C122.91 25.5578 121.941 27.769 120.011 29.3522C118.08 30.9354 115.381 31.7237 111.928 31.7237C110.231 31.7237 108.607 31.53 107.071 31.1492" fill="white"/>
<path d="M134.675 1.8894H128.302V31.1557H134.675V1.8894Z" fill="white"/>
<path d="M159.144 31.1157C157.708 31.5566 156.125 31.777 154.401 31.777C151.529 31.777 148.997 31.1491 146.799 29.8865C144.601 28.6239 142.891 26.8537 141.682 24.569C140.466 22.2844 139.858 19.659 139.858 16.7063C139.858 13.7536 140.46 11.0815 141.662 8.79688C142.865 6.51223 144.561 4.74196 146.759 3.47938C148.957 2.21681 151.502 1.58887 154.408 1.58887C157.314 1.58887 159.812 2.20345 162.01 3.43262C164.208 4.66179 165.905 6.41203 167.107 8.68332C168.31 10.9546 168.911 13.5666 168.911 16.526C168.911 18.7505 168.564 20.808 167.875 22.6985C167.187 24.5891 166.212 26.2057 164.956 27.5551L169.045 29.6661L168.383 35.685L159.158 31.1157H159.144ZM154.709 22.1975L159.231 24.569C160.227 23.7473 160.995 22.6651 161.536 21.3157C162.077 19.9663 162.351 18.4298 162.351 16.6996C162.351 14.7958 162.024 13.119 161.362 11.6694C160.701 10.2198 159.766 9.10418 158.55 8.32926C157.334 7.55435 155.951 7.1669 154.395 7.1669C152.838 7.1669 151.455 7.56103 150.24 8.35599C149.024 9.14426 148.088 10.2665 147.427 11.7162C146.766 13.1658 146.438 14.8292 146.438 16.7063C146.438 19.5454 147.153 21.8368 148.59 23.5603C150.026 25.2905 151.93 26.1656 154.301 26.199L154.695 22.1975H154.709Z" fill="white"/>
<path d="M181.91 1.8894H189.559L200.415 31.1557H193.821L191.45 24.4754H179.94L177.695 31.1557H171.195L181.917 1.8894H181.91ZM189.559 19.0243L185.605 7.82149L181.784 19.0243H189.559Z" fill="white"/>
<path d="M44.05 13.9541H34.5039V19.3584H44.05V13.9541Z" fill="white"/>
<path d="M25.5855 4.89551L22.2654 7.26033V21.663C22.2654 23.7873 18.4442 26.9404 14.6699 28.9512L14.5162 29.0313L14.3626 28.9512C11.0358 27.1809 7.68232 24.5222 6.92744 22.4646C6.92744 22.4646 6.83392 22.2575 6.76712 21.7766L3.40026 24.0679L0 21.7766C0 21.7766 0 22.2575 0.0601225 22.6784C0.454259 26.0119 2.75895 29.2318 6.95417 32.2646C10.0071 34.4691 12.9931 35.8185 13.1201 35.8719L14.5029 36.4932L15.8857 35.8719C16.0126 35.8185 18.9987 34.4691 22.0516 32.2646C26.6743 28.9178 29.0191 25.3505 29.0191 21.6563V7.26701L25.5721 4.89551H25.5855Z" fill="white"/>
<path d="M6.76712 21.7767V7.2671H2.32474L0 3.96704V21.7767L3.39358 24.068L6.76044 21.7767" fill="#DDDEDF"/>
<path d="M2.32474 0.5L0 3.96706L2.32474 7.26044H22.2654L25.5788 4.89562L29.0258 7.26044V0.5H2.32474Z" fill="#C3C3C6"/>
</g>
<defs>
<clipPath id="clip0_204_511">
<rect width="200.408" height="36" fill="white" transform="translate(0 0.5)"/>
</clipPath>
</defs>
</svg>
