<svg width="24" height="24" viewBox="0 0 24 24" fill="none" xmlns="http://www.w3.org/2000/svg">
<path d="M12 11.9999C12.55 11.9999 13.021 11.8039 13.413 11.4119C13.805 11.0199 14.0007 10.5492 14 9.99988C14 9.44988 13.804 8.97888 13.412 8.58688C13.02 8.19488 12.5493 7.99921 12 7.99988C11.45 7.99988 10.979 8.19588 10.587 8.58788C10.195 8.97988 9.99933 9.45054 10 9.99988C10 10.5499 10.196 11.0209 10.588 11.4129C10.98 11.8049 11.4507 12.0005 12 11.9999ZM12 19.3499C14.0333 17.4832 15.5417 15.7872 16.525 14.2619C17.5083 12.7365 18 11.3825 18 10.1999C18 8.38321 17.4207 6.89588 16.262 5.73788C15.1033 4.57988 13.6827 4.00054 12 3.99988C10.3167 3.99988 8.89567 4.57921 7.737 5.73788C6.57833 6.89654 5.99933 8.38388 6 10.1999C6 11.3832 6.49167 12.7375 7.475 14.2629C8.45833 15.7882 9.96667 17.4839 12 19.3499ZM12 21.9999C9.31667 19.7165 7.31267 17.5959 5.988 15.6379C4.66333 13.6799 4.00067 11.8672 4 10.1999C4 7.69988 4.80433 5.70821 6.413 4.22488C8.02167 2.74154 9.884 1.99988 12 1.99988C14.1167 1.99988 15.9793 2.74154 17.588 4.22488C19.1967 5.70821 20.0007 7.69988 20 10.1999C20 11.8665 19.3373 13.6792 18.012 15.6379C16.6867 17.5965 14.6827 19.7172 12 21.9999Z" fill="white"/>
</svg>
