<svg width="300" height="94" viewBox="0 0 300 94" fill="none" xmlns="http://www.w3.org/2000/svg">
<path d="M293.855 42.8489L286.22 32.4404L279.398 42.8489L273.479 42.8489L283.373 28.4923L273.253 14.6941L279.398 14.6941L286.898 24.9032L293.675 14.6941L299.593 14.6941L289.744 28.8114L300 42.8489L293.855 42.8489Z" fill="#003233"/>
<path d="M255.703 14.6941C258.734 14.6941 261.471 15.3211 263.914 16.575C266.388 17.8289 268.32 19.5871 269.712 21.8496C271.135 24.0849 271.846 26.62 271.846 29.4549C271.846 32.2899 271.135 34.8386 269.712 37.1011C268.32 39.3363 266.388 41.0946 263.914 42.3757C261.471 43.6297 258.734 44.2566 255.703 44.2566C252.642 44.2566 249.874 43.6297 247.4 42.3757C244.957 41.0946 243.024 39.3363 241.602 37.1011C240.179 34.8386 239.468 32.2899 239.468 29.4549C239.468 26.62 240.179 24.0849 241.602 21.8496C243.024 19.5871 244.957 17.8289 247.4 16.575C249.874 15.3211 252.642 14.6941 255.703 14.6941ZM255.703 19.0283C253.6 19.0283 251.729 19.4508 250.09 20.2958C248.451 21.1409 247.168 22.3539 246.24 23.9349C245.343 25.516 244.895 27.356 244.895 29.4549C244.895 31.5539 245.343 33.3939 246.24 34.9749C247.168 36.5559 248.451 37.7689 250.09 38.614C251.729 39.459 253.6 39.8815 255.703 39.8815C257.775 39.8815 259.615 39.459 261.223 38.614C262.862 37.7689 264.13 36.5559 265.027 34.9749C265.955 33.3939 266.419 31.5539 266.419 29.4549C266.419 27.356 265.955 25.516 265.027 23.9349C264.13 22.3539 262.862 21.1409 261.223 20.2958C259.615 19.4508 257.775 19.0283 255.703 19.0283Z" fill="#003233"/>
<path d="M228.547 29.0147C230.545 29.3777 232.153 30.2291 233.371 31.569C234.62 32.909 235.244 34.4722 235.244 36.2588C235.244 38.7154 234.323 40.6695 232.481 42.1211C230.639 43.5448 227.969 44.2566 224.473 44.2566L211.313 44.2566L211.312 14.6941L224.238 14.6941C227.548 14.6941 230.077 15.3641 231.825 16.704C233.605 18.016 234.495 19.8305 234.495 22.1475C234.495 24.0179 233.948 25.5393 232.856 26.7117C231.763 27.8563 230.327 28.6239 228.547 29.0147ZM216.651 27.4236L223.255 27.4236C225.128 27.4236 226.549 27.0327 227.517 26.2511C228.516 25.4695 229.015 24.3808 229.015 22.985C229.015 21.6171 228.516 20.5424 227.517 19.7608C226.549 18.9791 225.066 18.5883 223.068 18.5883L216.651 18.5883L216.651 27.4236ZM223.395 40.3205C225.425 40.3205 226.986 39.9158 228.079 39.1062C229.203 38.2687 229.765 37.1102 229.765 35.6307C229.765 34.1512 229.203 32.9927 228.079 32.1552C226.955 31.3178 225.378 30.899 223.349 30.899L216.651 30.899L216.651 40.3205L223.395 40.3205Z" fill="#003233"/>
<path d="M189.597 21.7328L196.083 37.1608L202.098 21.7328L207.09 21.7328L194 52.7031L189.008 52.7031L193.686 42.2273L184.566 21.7328L189.597 21.7328Z" fill="#003233"/>
<path d="M166.939 20.489C169.053 20.489 170.857 20.9771 172.351 21.9533C173.845 22.9295 174.888 24.2223 175.48 25.8317L175.48 13.2864L180.342 13.2864L180.342 42.5719L175.48 42.5719L175.48 37.5063C174.888 39.1157 173.845 40.4084 172.351 41.3846C170.857 42.3608 169.053 42.8489 166.939 42.8489C164.909 42.8489 163.091 42.4004 161.484 41.5034C159.906 40.6063 158.666 39.3135 157.764 37.625C156.862 35.9365 156.411 33.9445 156.411 31.6492C156.411 29.3802 156.862 27.4015 157.764 25.7129C158.666 24.0244 159.906 22.7316 161.484 21.8346C163.091 20.9375 164.909 20.489 166.939 20.489ZM168.419 24.4465C166.276 24.4465 164.557 25.0929 163.26 26.3857C161.992 27.6521 161.358 29.4066 161.358 31.6492C161.358 33.8918 161.992 35.6594 163.26 36.9522C164.557 38.2186 166.276 38.8518 168.419 38.8518C169.772 38.8518 170.984 38.5616 172.055 37.9812C173.126 37.3744 173.972 36.5301 174.592 35.4484C175.212 34.3667 175.522 33.1003 175.522 31.6492C175.522 30.2245 175.212 28.9713 174.592 27.8896C173.972 26.7815 173.126 25.9372 172.055 25.3568C170.984 24.7499 169.772 24.4465 168.419 24.4465Z" fill="#003233"/>
<path d="M155.003 30.5307C155.003 31.2748 154.944 31.926 154.826 32.4841L136.035 32.4841C136.124 34.7431 136.818 36.4174 138.118 37.5071C139.418 38.5967 141.028 39.1416 142.948 39.1416C144.633 39.1416 146.051 38.7562 147.203 37.9855C148.385 37.2147 149.109 36.1915 149.375 34.9159L154.781 34.9159C154.456 36.4573 153.777 37.826 152.743 39.022C151.709 40.2179 150.364 41.1614 148.71 41.8524C147.055 42.5168 145.209 42.849 143.17 42.849C140.806 42.849 138.709 42.3972 136.877 41.4936C135.075 40.59 133.656 39.2877 132.622 37.5868C131.588 35.8859 131.071 33.8794 131.071 31.5672C131.071 29.2816 131.588 27.2883 132.622 25.5874C133.656 23.8865 135.075 22.5842 136.877 21.6806C138.709 20.777 140.806 20.3252 143.17 20.3252C145.563 20.3252 147.646 20.777 149.419 21.6806C151.221 22.5576 152.595 23.7802 153.54 25.3482C154.515 26.8897 155.003 28.6172 155.003 30.5307ZM149.906 30.4111C149.965 28.9759 149.685 27.78 149.064 26.8232C148.473 25.8399 147.646 25.1223 146.582 24.6705C145.548 24.1921 144.411 23.9529 143.17 23.9529C141.191 23.9529 139.536 24.4978 138.206 25.5874C136.877 26.677 136.153 28.2849 136.035 30.4111L149.906 30.4111Z" fill="#003233"/>
<path d="M126.848 14.6941L126.848 44.2566L121.098 44.2566L121.098 22.0954L111.048 44.2566L106.048 44.2566L95.9473 22.0954L95.9473 44.2566L90.2471 44.2566L90.2471 14.6941L97.1473 14.6941L108.648 38.3016L119.948 14.6941L126.848 14.6941Z" fill="#003233"/>
<rect x="29.1372" width="16.6492" height="16.6492" transform="rotate(45 29.1372 0)" fill="#003233"/>
<rect opacity="0.6" x="29.1372" y="34.8256" width="16.6492" height="16.6492" transform="rotate(45 29.1372 34.8256)" fill="#003233"/>
<rect opacity="0.2" x="29.1372" y="69.6133" width="16.6884" height="16.6884" transform="rotate(45 29.1372 69.6133)" fill="#003233"/>
<rect opacity="0.8" x="11.7725" y="16.933" width="16.6492" height="16.6492" transform="rotate(45 11.7725 16.933)" fill="#003233"/>
<rect opacity="0.4" x="11.7725" y="52.6804" width="16.6492" height="16.6492" transform="rotate(45 11.7725 52.6804)" fill="#003233"/>
<rect opacity="0.8" x="46.6064" y="16.933" width="16.6492" height="16.6492" transform="rotate(45 46.6064 16.933)" fill="#003233"/>
<rect opacity="0.4" x="46.6064" y="52.6804" width="16.6492" height="16.6492" transform="rotate(45 46.6064 52.6804)" fill="#003233"/>
<path d="M91.4206 57.8214H107.798V60.1365H94.2215V66.6817H107.712V68.9968H94.2215V75.6849H107.798V78H91.4206V57.8214ZM120.004 67.4248L110.372 57.8214H114.002L121.804 65.5384L129.607 57.8214H133.208L123.576 67.4248L134.237 78H130.55L121.804 69.2826L113.03 78H109.314L120.004 67.4248ZM136.61 57.8214H147.242C149.128 57.8214 150.662 58.0786 151.844 58.5931C153.025 59.1076 153.863 59.9174 154.359 61.0225C154.702 61.7657 154.873 62.6612 154.873 63.7092C154.873 64.7763 154.702 65.6813 154.359 66.4245C153.863 67.5106 153.025 68.3108 151.844 68.8253C150.662 69.3398 149.128 69.597 147.242 69.597H139.411V78H136.61V57.8214ZM146.813 67.2247C148.223 67.2247 149.319 67.0914 150.1 66.8246C150.881 66.5388 151.424 66.0624 151.729 65.3955C151.92 64.9573 152.015 64.4142 152.015 63.7664C152.015 63.0423 151.91 62.4612 151.701 62.0229C151.396 61.356 150.853 60.8892 150.072 60.6224C149.29 60.3556 148.204 60.2223 146.813 60.2223H139.411V67.2247H146.813ZM158.018 57.8214H174.395V60.1365H160.819V66.6817H174.309V68.9968H160.819V75.6849H174.395V78H158.018V57.8214ZM185 69.5113H180.999V78H178.198V57.8214H189.573C191.365 57.8214 192.851 58.0977 194.032 58.6503C195.233 59.1838 196.071 59.9841 196.547 61.0511C196.871 61.7942 197.033 62.6231 197.033 63.5377C197.033 64.6048 196.852 65.5289 196.49 66.3101C196.014 67.3581 195.204 68.1584 194.061 68.711C192.937 69.2445 191.507 69.5113 189.774 69.5113H188.745L198.52 78H194.575L185 69.5113ZM180.999 67.1962H189.03C190.383 67.1962 191.45 67.0533 192.232 66.7674C193.032 66.4626 193.575 65.9672 193.861 65.2812C194.07 64.862 194.175 64.3094 194.175 63.6235C194.175 62.9947 194.08 62.4802 193.889 62.0801C193.584 61.3941 193.032 60.8987 192.232 60.5938C191.45 60.289 190.383 60.1365 189.03 60.1365H180.999V67.1962ZM201.253 57.8214H204.054V78H201.253V57.8214ZM208.678 57.8214H225.055V60.1365H211.479V66.6817H224.969V68.9968H211.479V75.6849H225.055V78H208.678V57.8214ZM228.858 57.8214H232.259L247.036 74.9989V57.8214H249.808V78H246.321L231.659 60.9654V78H228.858V57.8214ZM266.258 78.5145C263.171 78.5145 260.589 77.9714 258.512 76.8853C256.454 75.7802 254.987 74.2368 254.11 72.2551C253.52 70.9022 253.224 69.4541 253.224 67.9107C253.224 66.3482 253.52 64.8906 254.11 63.5377C254.682 62.2611 255.53 61.1559 256.654 60.2223C257.778 59.2886 259.15 58.5741 260.77 58.0786C262.409 57.5642 264.247 57.3069 266.286 57.3069C268.287 57.3069 270.116 57.5642 271.774 58.0786C273.451 58.5931 274.851 59.3553 275.975 60.3652C276.776 61.1083 277.404 61.9562 277.862 62.9089C278.319 63.8616 278.586 64.9096 278.662 66.0529H275.718C275.489 64.3952 274.813 63.0804 273.689 62.1086C272.85 61.3274 271.793 60.7463 270.516 60.3652C269.259 59.965 267.858 59.765 266.315 59.765C263.952 59.765 261.961 60.1842 260.341 61.0225C258.722 61.8609 257.578 63.0233 256.911 64.5095C256.454 65.5575 256.225 66.6912 256.225 67.9107C256.225 69.1302 256.445 70.2544 256.883 71.2833C257.569 72.8077 258.722 73.9891 260.341 74.8274C261.961 75.6468 263.952 76.0565 266.315 76.0565C267.896 76.0565 269.335 75.8659 270.631 75.4848C271.926 75.0847 272.993 74.494 273.832 73.7128C274.994 72.6457 275.642 71.3119 275.775 69.7113H278.691C278.614 70.9118 278.348 71.9979 277.89 72.9696C277.433 73.9414 276.795 74.7893 275.975 75.5134C274.889 76.5042 273.508 77.2569 271.831 77.7713C270.173 78.2668 268.315 78.5145 266.258 78.5145ZM282.029 57.8214H298.407V60.1365H284.83V66.6817H298.321V68.9968H284.83V75.6849H298.407V78H282.029V57.8214Z" fill="#003233"/>
</svg>
