<svg xmlns="http://www.w3.org/2000/svg" viewBox="0 0 5097.16 1290.62"><defs><style>.cls-1{fill:#fff;}.cls-2{opacity:0.2;}.cls-3{fill:#00a67e;}.cls-4{opacity:0.4;}.cls-5{opacity:0.6;}.cls-6{opacity:0.8;}</style></defs><g id="Layer_2" data-name="Layer 2"><g id="X"><path class="cls-1" d="M4599.38,401.73l192,248L4586.93,908.4l117.34.89,138.66-191.12L4976.27,908.4l120.89.89L4893.6,649.73q98.67-124,197.33-248l-111.11-.89L4846.49,581.29,4716.71,400.84Z"/></g><g id="O"><path class="cls-1" d="M4467.82,447.06c23,18.07,80.72,69.49,97.78,157.34,2.73,14,21,117.09-47.11,205.33-42.63,55.23-97,76-127.11,87.11-94.94,34.93-222.7,31.66-313.78-41.78-14.63-11.79-53.83-44.18-77.33-101.33-29.09-70.73-15.69-134.56-9.78-160.89,5.69-25.36,18.2-78.13,61.33-124.44,73.48-78.89,180-79,221.34-79.11C4313.36,389.22,4394,389.1,4467.82,447.06Zm-192.89,17.78c-22.85-.5-98,1.73-152,62.22-45.46,51-62.27,128-34.66,193.78,27.43,65.35,86.74,91.07,102.22,97.78,60.26,26.13,159.11,34.13,226.67-33.78,50.56-50.82,70.65-131.16,42.66-201.78C4426.14,498.09,4338.33,466.24,4274.93,464.84Z"/></g><g id="B"><path class="cls-1" d="M3738.93,400c6,0,104.4,1.41,145.78,73.78,5.36,9.37,24.45,42.75,16,85.33-2,10.2-9.73,41.65-39.11,65.78a114.35,114.35,0,0,1-58.67,24.89c6.67,0,65.06,1.11,97.78,47.11,20.93,29.43,20.67,62.2,20.45,72.89a126.05,126.05,0,0,1-12.45,52.44c-14.49,29.29-37.2,44.23-54.22,55.12-39.29,25.14-79.11,30.82-103.11,32l-296,.88q-.89-254.65-1.78-509.33Zm-200,224,196.45-2.66c7.36-.29,26.61-2,44.44-16,4.19-3.29,29.54-23.89,28.45-56-.93-27.29-20.32-44.53-30.22-53.34a102.17,102.17,0,0,0-41.78-22.22l-196.45.89Q3539.39,549.29,3538.93,624Zm0,61.34q.45,69.33.89,138.66l201.78.89c44.49,4.17,80.9-29.09,82.67-64.89,1.89-38.47-36.38-77.22-84.45-72Z"/></g><g id="Y"><polygon class="cls-1" points="2957.01 517.88 3126.49 898.32 3052.42 1047.65 3148.42 1048.25 3390.79 517.88 3295.38 516.69 3173.9 793.43 3051.82 517.28 2957.01 517.88"/></g><g id="D"><path class="cls-1" d="M2798.49,359.06h94.22q.89,275.57,1.78,551.11l-86.22-.88-2.67-115.56c-4.65,18.17-19.15,63.88-62.22,92.44-19.19,12.73-37.25,17.55-50.22,20.89-45,11.61-84.56,5.76-109.34-.44-18.68-5.3-53.13-17.92-83.11-48.89-53.37-55.15-52-126.55-51.55-150.22.45-24.62,2-108.92,68.44-161.78,53.47-42.54,116.32-38.74,139.56-37.33,21.41,1.29,58.76,3.55,93.33,29.33,19.74,14.72,36,34.93,47.11,56.89.07.13.21.41.4.4C2802,594.89,2800.61,472.82,2798.49,359.06ZM2797.6,656c-22.83-51.35-78.27-81.53-131.55-79.11-9,.41-62.73,3.79-97.78,48.89-28.19,36.27-26.53,76.62-25.78,89.78s3.38,50.07,32,81.78c35.59,39.42,84.42,41,95.56,41.33,15.32.49,58.34-.66,94.66-32.45a128.69,128.69,0,0,0,34.67-48.88C2801.73,751.38,2819.4,705,2797.6,656Z"/></g><g id="E"><path class="cls-1" d="M2406.49,728.84H2066.34c19.78,64.63,76.85,108.14,138.08,107.85,70.75-.33,112.32-59,116.14-64.59l86.52-.59c-4,19.92-14.24,55.84-43.85,86.52-50,51.76-119.74,52-161.18,52.14-39.09.14-99.88.34-155.26-43.85-60.31-48.12-72.15-115.33-74.08-127.41-2.12-13.31-12-83.55,32.59-147,62.08-88.31,175.23-85.89,201.49-85.33,31.53.67,87.57,1.87,135.7,42.67C2417.6,613,2407.75,717.41,2406.49,728.84ZM2066.34,676.1l254.22.59c-1-9.93-6.11-50.55-40.29-78.22-29.7-24-63.43-23.83-84.15-23.7-15.28.09-43.63.26-72.3,17.77C2080.74,618.86,2068.92,664.8,2066.34,676.1Z"/></g><g id="M"><path class="cls-1" d="M1229.6,401.73l.59,507.26,96,.59q-.43-163.7-.89-327.41,95.57,163.71,191.12,327.41l94.81.3q95.55-164,191.11-328l.3,327.7,94.81.59-.59-509.63h-93.63L1565,814.17,1325.6,401.73Z"/></g><g id="_7" data-name="7"><g class="cls-2"><polygon class="cls-3" points="242.65 1129.75 403.53 968.88 564.39 1129.75 403.53 1290.62 242.65 1129.75"/></g></g><g id="_6" data-name="6"><g class="cls-4"><polygon class="cls-3" points="484.32 887.35 645.2 726.47 806.06 887.35 645.2 1048.22 484.32 887.35"/></g></g><g id="_5" data-name="5"><g class="cls-4"><rect class="cls-3" x="47.12" y="773.59" width="227.51" height="227.51" transform="translate(-580.33 373.65) rotate(-45)"/></g></g><g id="_4" data-name="4"><g class="cls-5"><rect class="cls-3" x="289.77" y="531.92" width="227.51" height="227.51" transform="translate(-338.37 474.45) rotate(-45)"/></g></g><g id="_3" data-name="3"><g class="cls-6"><rect class="cls-3" x="531.44" y="289.28" width="227.51" height="227.51" transform="translate(-96.01 574.26) rotate(-45)"/></g></g><g id="_2" data-name="2"><g class="cls-6"><polygon class="cls-3" points="0 403.03 160.88 242.16 321.75 403.03 160.88 563.9 0 403.03"/></g></g><g id="_1" data-name="1"><rect class="cls-3" x="289.77" y="47.12" width="227.51" height="227.51" transform="translate(4.43 332.45) rotate(-45)"/></g></g></svg>