<svg xmlns="http://www.w3.org/2000/svg" xmlns:xlink="http://www.w3.org/1999/xlink" id="STAMPA" viewBox="0 0 1920 561.2"><defs><style>.cls-1{clip-path:url(#clippath-11);}.cls-2{fill:#009f75;}.cls-3{clip-path:url(#clippath-2);}.cls-4{opacity:.2;}.cls-5{opacity:.6;}.cls-6{clip-path:url(#clippath-6);}.cls-7{clip-path:url(#clippath-7);}.cls-8{clip-path:url(#clippath-1);}.cls-9{clip-path:url(#clippath-4);}.cls-10{opacity:.8;}.cls-11{fill:#a09d9c;}.cls-12{clip-path:url(#clippath-9);}.cls-13{clip-path:url(#clippath);}.cls-14{opacity:.4;}.cls-15{fill:none;}.cls-16{clip-path:url(#clippath-3);}.cls-17{clip-path:url(#clippath-8);}.cls-18{clip-path:url(#clippath-5);}.cls-19{clip-path:url(#clippath-10);}</style><clipPath id="clippath"><rect class="cls-15" x="298.77" y="303.85" width="92.21" height="92.21"></rect></clipPath><clipPath id="clippath-1"><rect class="cls-15" x="298.78" y="303.86" width="92.2" height="92.2"></rect></clipPath><clipPath id="clippath-2"><rect class="cls-15" x="160" y="165.08" width="92.21" height="92.21"></rect></clipPath><clipPath id="clippath-3"><rect class="cls-15" x="160" y="165.08" width="92.2" height="92.2"></rect></clipPath><clipPath id="clippath-4"><rect class="cls-15" x="160" y="303.85" width="92.21" height="92.21"></rect></clipPath><clipPath id="clippath-5"><rect class="cls-15" x="160" y="303.86" width="92.2" height="92.2"></rect></clipPath><clipPath id="clippath-6"><rect class="cls-15" x="298.77" y="165.08" width="92.21" height="92.21"></rect></clipPath><clipPath id="clippath-7"><rect class="cls-15" x="298.78" y="165.08" width="92.2" height="92.2"></rect></clipPath><clipPath id="clippath-8"><rect class="cls-15" x="229.55" y="234.64" width="92.16" height="92.16"></rect></clipPath><clipPath id="clippath-9"><rect class="cls-15" x="229.53" y="234.61" width="92.2" height="92.2"></rect></clipPath><clipPath id="clippath-10"><rect class="cls-15" x="229.55" y="373.35" width="92.16" height="92.16"></rect></clipPath><clipPath id="clippath-11"><rect class="cls-15" x="229.53" y="373.32" width="92.2" height="92.2"></rect></clipPath></defs><g class="cls-14"><g class="cls-13"><g class="cls-8"><rect class="cls-2" x="312.28" y="317.36" width="65.19" height="65.19" transform="translate(-146.45 346.33) rotate(-45)"></rect></g></g></g><g class="cls-10"><g class="cls-3"><g class="cls-16"><rect class="cls-2" x="173.5" y="178.59" width="65.19" height="65.19" transform="translate(-88.96 207.59) rotate(-45)"></rect></g></g></g><g class="cls-14"><g class="cls-9"><g class="cls-18"><rect class="cls-2" x="173.5" y="317.36" width="65.19" height="65.19" transform="translate(-187.09 248.23) rotate(-45)"></rect></g></g></g><g class="cls-10"><g class="cls-6"><g class="cls-7"><rect class="cls-2" x="312.28" y="178.59" width="65.19" height="65.19" transform="translate(-48.31 305.74) rotate(-45)"></rect></g></g></g><g class="cls-5"><g class="cls-17"><g class="cls-12"><rect class="cls-2" x="243.03" y="248.12" width="65.19" height="65.19" transform="translate(-117.76 277.09) rotate(-45)"></rect></g></g></g><rect class="cls-2" x="243.03" y="109.2" width="65.19" height="65.19" transform="translate(-19.54 236.41) rotate(-45)"></rect><g class="cls-4"><g class="cls-19"><g class="cls-1"><rect class="cls-2" x="243.03" y="386.83" width="65.19" height="65.19" transform="translate(-215.84 317.71) rotate(-45)"></rect></g></g></g><path class="cls-2" d="M538.47,370.04l15.66-166.05c.26-4.1,2.83-6.41,6.93-6.41h11.29c3.85,0,6.41,1.53,7.96,5.39l62.88,145.52,62.88-145.52c1.54-3.86,4.11-5.39,7.96-5.39h11.3c4.11,0,6.67,2.31,6.93,6.41l15.66,166.05c.26,4.62-2.05,7.18-6.68,7.18h-6.41c-4.36,0-6.93-2.31-7.44-6.41l-12.58-143.72-61.6,142.44c-1.54,3.59-3.86,5.39-7.7,5.39h-4.62c-3.86,0-6.42-1.8-7.96-5.39l-61.34-142.44-12.57,143.72c-.52,4.11-3.08,6.41-7.45,6.41h-6.42c-4.62,0-6.93-2.56-6.67-7.18"></path><path class="cls-2" d="M775.88,313.84c0-37.22,29-67.51,68.53-67.51,31.31,0,60.57,18.74,63.91,59.8,.77,4.36-2.05,6.93-6.67,6.93h-106c-1.8,28.49,20.53,49.54,52.1,49.54,13.61,0,26.7-3.85,38.5-12.83,3.34-2.31,6.67-2.06,9.49,.77l2.05,2.06c2.83,3.07,2.83,7.18-1.54,10.77-14.88,12.58-32.34,16.69-48.51,16.69-44.14,0-71.86-30.03-71.86-66.21m112.67-15.92c-5.9-26.43-25.92-34.14-43.63-34.14-20.02,0-40.04,10.52-47.48,34.14h91.11Z"></path><path class="cls-2" d="M928.59,313.32c0-36.95,25.15-66.99,64.16-66.99,20.27,0,38.75,8.73,50.04,27.98v-75.71c0-4.36,2.57-6.93,6.93-6.93h5.9c4.36,0,6.93,2.57,6.93,6.93v171.7c0,4.36-2.56,6.93-6.93,6.93h-5.9c-4.36,0-6.93-2.56-6.93-6.93v-18.22c-11.29,19.51-29.77,27.98-50.04,27.98-39.02,0-64.16-30.03-64.16-66.73m114.72,0c-.26-29-20.02-49.54-48.26-49.54s-46.71,22.33-46.71,49.54,17.2,49.28,46.71,49.28,48-20.53,48.26-49.28"></path><path class="cls-2" d="M1122.88,426.76l20.28-51.58-51.33-117.8c-1.8-4.88,.26-8.21,5.39-8.21h7.96c3.84,0,6.41,1.8,7.7,5.39l41.06,98.3,38.5-98.03c1.28-3.86,4.1-5.65,7.96-5.65h8.2c5.14,0,7.45,3.08,5.39,8.21l-72.89,171.95c-1.54,3.85-4.11,5.39-7.96,5.39h-4.87c-5.14,0-7.19-3.08-5.39-7.96"></path><path class="cls-11" d="M1376.71,332.57c0,27.71-23.61,44.66-56.46,44.66h-65.95c-2.57,0-4.11-1.54-4.11-4.36V201.94c0-2.82,1.54-4.36,4.11-4.36h57.23c30.54,0,55.95,14.89,55.95,44.14,0,20.03-12.06,37.74-37.73,44.15,30.8,4.36,46.97,23.61,46.97,46.71m-113.18-123.45v72.12h37.47c37.22,0,52.61-18.48,52.61-38.75,0-22.84-19.76-33.37-42.09-33.37h-48Zm99.33,122.94c0-21.3-18.73-39.78-55.69-39.78h-43.63v73.4h56.72c24.64,0,42.6-12.58,42.6-33.62"></path><path class="cls-11" d="M1403.15,287.4c0-51.07,42.09-92.65,93.16-92.65s93.16,41.58,93.16,92.65-41.84,92.66-93.16,92.66-93.16-41.58-93.16-92.66m172.47,0c0-44.65-35.68-80.32-79.3-80.32s-79.31,35.67-79.31,80.32,35.68,80.33,79.31,80.33,79.3-35.68,79.3-80.33"></path><path class="cls-11" d="M1599.48,372.61l71.6-88.54-66.47-81.87c-1.8-2.57-1.03-4.62,2.31-4.62h7.7c2.05,0,3.34,.26,4.62,2.05l60.06,73.92,59.8-73.66c1.29-1.79,2.83-2.31,4.62-2.31h7.7c3.08,0,4.11,2.05,2.05,4.62l-66.22,81.87,71.6,88.54c2.06,2.57,1.29,4.62-2.05,4.62h-8.21c-1.79,0-3.33-.52-4.62-2.31l-64.67-80.08-64.94,80.08c-1.28,1.8-2.82,2.31-4.62,2.31h-8.21c-3.08,0-4.11-2.05-2.05-4.62"></path></svg>