<svg width="40" height="40" viewBox="0 0 40 40" fill="none" xmlns="http://www.w3.org/2000/svg">
<path d="M24.7501 37.4167V30.2917H30.2917V23.9583H34.2501C31.8751 14.4583 29.5001 4.16667 18.4167 4.16667C15.6274 4.16559 12.9158 5.0852 10.7026 6.78281C8.48943 8.48042 6.89847 10.8611 6.17663 13.5553C5.45479 16.2496 5.64245 19.1068 6.71048 21.6835C7.7785 24.2602 9.66718 26.4123 12.0834 27.8058V37.4167" stroke="#E2ECF1" stroke-width="2"/>
<path d="M20.5384 10.12L21.3269 12.5821L23.8523 12.0327L25.8315 15.459L24.1658 17.3717L25.8299 19.2843L23.8523 22.7107L21.3269 22.1613L20.54 24.6233H16.5832L15.7963 22.1613L13.2709 22.7107L11.2917 19.2843L12.9574 17.3717L11.2917 15.459L13.2709 12.0327L15.7963 12.5821L16.5832 10.12H20.54H20.5384Z" stroke="#6CF3D5" stroke-width="2"/>
<path d="M18.5657 18.3866C18.8353 18.3866 19.0938 18.2795 19.2844 18.0889C19.4751 17.8982 19.5822 17.6397 19.5822 17.3701C19.5822 17.1005 19.4751 16.8419 19.2844 16.6513C19.0938 16.4607 18.8353 16.3536 18.5657 16.3536" stroke="#E2ECF1" stroke-width="2"/>
<path d="M18.5656 18.3866C18.296 18.3866 18.0374 18.2795 17.8468 18.0889C17.6562 17.8982 17.5491 17.6397 17.5491 17.3701C17.5491 17.1005 17.6562 16.8419 17.8468 16.6513C18.0374 16.4607 18.296 16.3536 18.5656 16.3536" stroke="#E2ECF1" stroke-width="2"/>
</svg>
