<svg width="20" height="20" viewBox="0 0 20 20" fill="none" xmlns="http://www.w3.org/2000/svg">
<path d="M16.6666 7.91669C16.9774 7.9167 17.277 8.03245 17.507 8.24137C17.737 8.45028 17.881 8.73738 17.9108 9.04668L17.9166 9.16669L17.9166 12.5C17.9166 13.464 17.5454 14.3909 16.88 15.0885C16.2147 15.786 15.3062 16.2004 14.3433 16.2459L14.1666 16.25L7.13331 16.25L7.11665 16.51C7.11372 16.5489 7.11066 16.5878 7.10748 16.6267C7.06081 17.2259 6.48331 17.6017 5.99831 17.3475L5.73665 17.2075L5.42998 17.0334C5.37339 17.0006 5.317 16.9676 5.26081 16.9342L4.89498 16.71C4.63441 16.5454 4.37821 16.3739 4.12665 16.1959L3.80581 15.9625L3.53665 15.7584C3.49844 15.7288 3.46038 15.6991 3.42248 15.6692C3.01498 15.3442 3.03081 14.6734 3.46415 14.3309L3.57748 14.2417L3.84415 14.04L4.16081 13.8109L4.52581 13.56C4.72166 13.4292 4.92003 13.3023 5.12081 13.1792L5.47581 12.9667L5.78831 12.7909L6.05165 12.6492C6.53248 12.3992 7.05748 12.72 7.10331 13.2792L7.13498 13.75L14.1666 13.75C14.4774 13.75 14.777 13.6343 15.007 13.4253C15.237 13.2164 15.381 12.9293 15.4108 12.62L15.4166 12.5L15.4166 9.16669C15.4166 8.83516 15.5483 8.51722 15.7828 8.2828C16.0172 8.04838 16.3351 7.91669 16.6666 7.91669ZM14.0016 2.65252L14.2633 2.79252L14.57 2.96669C14.625 2.99835 14.6816 3.03085 14.7391 3.06585L15.105 3.29002C15.3656 3.45463 15.6218 3.62608 15.8733 3.80419L16.1941 4.03752L16.4633 4.24169L16.5775 4.33085C16.985 4.65585 16.9691 5.32669 16.5358 5.66919L16.4225 5.75835L16.1558 5.96002L15.8391 6.18919C15.526 6.40996 15.2058 6.62062 14.8791 6.82085L14.5241 7.03335L14.2116 7.20919L13.9483 7.35085C13.4675 7.60085 12.9425 7.28002 12.8975 6.72085L12.8641 6.25002L5.83331 6.25002C5.50179 6.25002 5.18385 6.38171 4.94943 6.61613C4.71501 6.85056 4.58331 7.1685 4.58331 7.50002L4.58331 10.8334C4.58331 11.1649 4.45162 11.4828 4.2172 11.7172C3.98278 11.9517 3.66483 12.0834 3.33331 12.0834C3.00179 12.0834 2.68385 11.9517 2.44943 11.7172C2.21501 11.4828 2.08331 11.1649 2.08331 10.8334L2.08331 7.50002C2.08331 6.50546 2.4784 5.55163 3.18166 4.84837C3.88492 4.14511 4.83875 3.75002 5.83331 3.75002L12.8666 3.75002L12.8925 3.37335C12.9391 2.77419 13.5166 2.39835 14.0016 2.65252Z" fill="#003233"/>
</svg>
