<svg width="40" height="40" viewBox="0 0 40 40" fill="none" xmlns="http://www.w3.org/2000/svg">
<path d="M32.6667 27.125C32.6667 28.1748 32.2496 29.1816 31.5073 29.9239C30.765 30.6663 29.7581 31.0833 28.7083 31.0833C27.6585 31.0833 26.6517 30.6663 25.9094 29.9239C25.167 29.1816 24.75 28.1748 24.75 27.125C24.75 26.0751 25.167 25.0683 25.9094 24.326C26.6517 23.5837 27.6585 23.1666 28.7083 23.1666C29.7581 23.1666 30.765 23.5837 31.5073 24.326C32.2496 25.0683 32.6667 26.0751 32.6667 27.125Z" stroke="#E2ECF1" stroke-width="2"/>
<path d="M22.375 37.4166V35.0416C22.375 35.0416 24.75 33.4583 28.7083 33.4583C32.6667 33.4583 35.0417 35.0416 35.0417 35.0416V37.4166" stroke="#E2ECF1" stroke-width="2"/>
<path d="M17.6251 32.6666H8.91675V23.9583" stroke="#6CF3D5" stroke-width="2"/>
<path d="M31.0833 16.0416V7.33325H22.375" stroke="#6CF3D5" stroke-width="2"/>
<path d="M15.25 8.12496C15.25 8.64477 15.1477 9.1595 14.9487 9.63975C14.7498 10.12 14.4582 10.5564 14.0907 10.9239C13.7231 11.2915 13.2867 11.5831 12.8065 11.782C12.3262 11.9809 11.8115 12.0833 11.2917 12.0833C10.7719 12.0833 10.2572 11.9809 9.77692 11.782C9.29667 11.5831 8.86031 11.2915 8.49274 10.9239C8.12518 10.5564 7.83361 10.12 7.63468 9.63975C7.43576 9.1595 7.33337 8.64477 7.33337 8.12496C7.33337 7.07514 7.75041 6.06833 8.49274 5.32599C9.23507 4.58366 10.2419 4.16663 11.2917 4.16663C12.3415 4.16663 13.3483 4.58366 14.0907 5.32599C14.833 6.06833 15.25 7.07514 15.25 8.12496Z" stroke="#E2ECF1" stroke-width="2"/>
<path d="M4.95837 18.4166V16.0416C4.95837 16.0416 7.33337 14.4583 11.2917 14.4583C15.25 14.4583 17.625 16.0416 17.625 16.0416V18.4166" stroke="#E2ECF1" stroke-width="2"/>
</svg>
