<svg width="40" height="40" viewBox="0 0 40 40" fill="none" xmlns="http://www.w3.org/2000/svg">
<path d="M29.4999 20.7917C29.4999 18.0621 28.4156 15.4444 26.4856 13.5144C24.5555 11.5843 21.9378 10.5 19.2083 10.5" stroke="#6CF3D5" stroke-width="2"/>
<path d="M35.8333 20.7916C35.8333 11.6099 28.39 4.16663 19.2083 4.16663" stroke="#6CF3D5" stroke-width="2"/>
<path d="M7.12898 24.0533C5.32591 20.8708 4.2838 17.3142 4.08423 13.6619L10.4445 12.9003L12.6833 20.7378L7.12898 24.0517V24.0533ZM7.12898 24.0533C8.18645 25.9136 9.49023 27.6227 11.005 29.1342C12.5566 30.6859 14.2666 31.9763 16.0875 33.0086M16.0875 33.0086C19.269 34.8113 22.8245 35.8534 26.4757 36.0534L27.2389 29.6931L19.4014 27.4543L16.0875 33.0086Z" stroke="#E2ECF1" stroke-width="2"/>
</svg>
